<svg width="48" height="48" viewBox="0 0 48 48" fill="none" xmlns="http://www.w3.org/2000/svg">
<path d="M17.8065 37.1614C15.6721 37.1614 13.9355 38.8979 13.9355 41.0323C13.9355 43.1668 15.6721 44.9033 17.8065 44.9033C19.941 44.9033 21.6775 43.1668 21.6775 41.0323C21.6775 38.8979 19.941 37.1614 17.8065 37.1614ZM17.8065 43.3549C16.526 43.3549 15.4839 42.3129 15.4839 41.0323C15.4839 39.7518 16.526 38.7098 17.8065 38.7098C19.087 38.7098 20.1291 39.7518 20.1291 41.0323C20.1291 42.3129 19.087 43.3549 17.8065 43.3549Z" fill="white"/>
<path d="M6.96765 26.3225C4.8332 26.3225 3.09668 28.059 3.09668 30.1935C3.09668 32.3279 4.8332 34.0644 6.96765 34.0644C9.1021 34.0644 10.8386 32.3279 10.8386 30.1935C10.8386 28.059 9.1021 26.3225 6.96765 26.3225ZM6.96765 32.5161C5.68713 32.5161 4.64507 31.474 4.64507 30.1935C4.64507 28.913 5.68713 27.8709 6.96765 27.8709C8.24816 27.8709 9.29023 28.913 9.29023 30.1935C9.29023 31.474 8.24816 32.5161 6.96765 32.5161Z" fill="white"/>
<path d="M41.0325 15.4839C39.752 15.4839 38.71 16.526 38.71 17.8065C38.71 19.087 39.752 20.129 41.0325 20.129C42.3131 20.129 43.3551 19.087 43.3551 17.8065C43.3551 16.526 42.3131 15.4839 41.0325 15.4839ZM41.0325 18.5807C40.6052 18.5807 40.2583 18.233 40.2583 17.8065C40.2583 17.3799 40.6052 17.0323 41.0325 17.0323C41.4599 17.0323 41.8067 17.3799 41.8067 17.8065C41.8067 18.233 41.4599 18.5807 41.0325 18.5807Z" fill="white"/>
<path d="M34.8392 13.9354C36.1197 13.9354 37.1618 12.8934 37.1618 11.6129C37.1618 10.3323 36.1197 9.29028 34.8392 9.29028C33.5587 9.29028 32.5166 10.3323 32.5166 11.6129C32.5166 12.8934 33.5587 13.9354 34.8392 13.9354ZM34.8392 10.8387C35.2665 10.8387 35.6134 11.1863 35.6134 11.6129C35.6134 12.0394 35.2665 12.3871 34.8392 12.3871C34.4118 12.3871 34.065 12.0394 34.065 11.6129C34.065 11.1863 34.4118 10.8387 34.8392 10.8387Z" fill="white"/>
<path d="M32.7373 18.8088L42.0265 9.51968L43.1212 10.6144L33.832 19.9035L32.7373 18.8088Z" fill="white"/>
<path d="M44.9071 2.16613L42.5845 0.617747L40.2588 2.16613L37.9316 0.617747L35.6106 2.16613L33.2888 0.617747L30.9677 2.16613L27.871 0.10136V7.45233L24.9345 8.71117L19.4988 23.7568L12.1339 25.5344C10.8581 24.1207 9.01781 23.2257 6.96774 23.2257C3.12542 23.2257 0 26.3519 0 30.1935C0 34.035 3.12542 37.1612 6.96774 37.1612C9.79045 37.1612 12.2214 35.4712 13.3154 33.0518L16.4392 32.2273L15.6511 34.4097C12.8617 35.3202 10.8387 37.9432 10.8387 41.0322C10.8387 44.8737 13.9641 47.9999 17.8065 47.9999C21.6488 47.9999 24.7742 44.8737 24.7742 41.0322C24.7742 39.1873 24.048 37.5119 22.8735 36.2639L24.9507 29.9806L27.871 29.2103V35.5114L30.9677 33.4466L33.2934 34.995L35.616 33.4466L37.9378 34.995L40.2588 33.4466L42.5775 34.995L44.9001 33.4466L48 35.5099V0.100586L44.9071 2.16613ZM6.96774 35.6128C3.98013 35.6128 1.54839 33.1819 1.54839 30.1935C1.54839 27.2051 3.98013 24.7741 6.96774 24.7741C9.95535 24.7741 12.3871 27.2051 12.3871 30.1935C12.3871 33.1819 9.95535 35.6128 6.96774 35.6128ZM13.8372 31.313C13.8968 30.9475 13.9355 30.5752 13.9355 30.1935C13.9355 29.0005 13.6328 27.8763 13.1025 26.8939L18.8686 25.5019L17.0787 30.4575L13.8372 31.313ZM26.1623 9.86936L30.5954 7.96949L21.5969 35.1932C20.5045 34.4817 19.2046 34.0645 17.8065 34.0645C17.6741 34.0645 17.5448 34.0768 17.4147 34.0846L26.1623 9.86936ZM17.8065 46.4515C14.8188 46.4515 12.3871 44.0206 12.3871 41.0322C12.3871 38.0438 14.8188 35.6128 17.8065 35.6128C20.7941 35.6128 23.2258 38.0438 23.2258 41.0322C23.2258 44.0206 20.7941 46.4515 17.8065 46.4515ZM25.5298 28.227L27.871 21.1447V27.6085L25.5298 28.227ZM46.4516 32.619L44.9001 31.5863L42.5775 33.1346L40.2588 31.5863L37.9378 33.1346L35.616 31.5863L33.2934 33.1346L30.9677 31.5863L29.4194 32.6183V16.4608L32.8134 6.19349H30.809L29.4194 6.78884V2.9953L30.9677 4.0273L33.2888 2.47891L35.6106 4.0273L37.9332 2.47891L40.2588 4.0273L42.5845 2.47891L44.9071 4.0273L46.4516 2.99607V32.619Z" fill="white"/>
<path d="M32.5166 27.8708H40.2585V29.4192H32.5166V27.8708Z" fill="white"/>
<path d="M41.8066 27.8708H43.355V29.4192H41.8066V27.8708Z" fill="white"/>
<path d="M32.5166 24.7742H43.3553V26.3226H32.5166V24.7742Z" fill="white"/>
<path d="M32.5166 21.6775H43.3553V23.2259H32.5166V21.6775Z" fill="white"/>
<path d="M20.5576 29.3779L21.1336 27.941L22.5712 28.5173L21.9952 29.9542L20.5576 29.3779Z" fill="white"/>
<path d="M21.7109 26.5024L22.2869 25.0655L23.7246 25.6418L23.1486 27.0787L21.7109 26.5024Z" fill="white"/>
<path d="M19.4072 32.2539L19.9832 30.817L21.4208 31.3933L20.8448 32.8302L19.4072 32.2539Z" fill="white"/>
<path d="M10 18C14.4112 18 18 14.4112 18 10C18 5.5888 14.4112 2 10 2C5.5888 2 2 5.5888 2 10C2 14.4112 5.5888 18 10 18ZM6.1664 15.1128C7.0664 13.9192 8.4824 13.2 10 13.2C11.5176 13.2 12.9336 13.92 13.8336 15.1128C12.7632 15.9168 11.4384 16.4 10 16.4C8.5616 16.4 7.2368 15.9168 6.1664 15.1128ZM7.6 9.2C7.6 7.8768 8.6768 6.8 10 6.8C11.3232 6.8 12.4 7.8768 12.4 9.2C12.4 10.5232 11.3232 11.6 10 11.6C8.6768 11.6 7.6 10.5232 7.6 9.2ZM10 3.6C13.5288 3.6 16.4 6.4712 16.4 10C16.4 11.5144 15.8688 12.9064 14.9856 14.0032C14.352 13.2144 13.5488 12.5928 12.6408 12.1808C13.468 11.4472 14 10.3896 14 9.2C14 6.9944 12.2056 5.2 10 5.2C7.7944 5.2 6 6.9944 6 9.2C6 10.3896 6.532 11.4472 7.3592 12.1808C6.4512 12.5936 5.648 13.2152 5.0144 14.0032C4.1312 12.9064 3.6 11.5144 3.6 10C3.6 6.4712 6.4712 3.6 10 3.6Z" fill="white"/>
</svg>
