<svg width="64" height="64" viewBox="0 0 64 64" fill="none" xmlns="http://www.w3.org/2000/svg">
<path fill-rule="evenodd" clip-rule="evenodd" d="M19.6129 15.4839H7.93703C6.23587 17.3791 3.77497 18.5806 1.03226 18.5806H0V0H1.03226C3.77497 0 6.23587 1.20155 7.93703 3.09677H19.6129C20.9569 3.09677 22.0924 3.96284 22.5197 5.16129H37.3512C37.7786 3.96284 38.9141 3.09677 40.2581 3.09677H48.5161C50.2235 3.09677 51.6129 4.48619 51.6129 6.19355V15.4839H49.5484V16.5161C49.5484 17.3089 49.2397 18.0263 48.7474 18.5734L51.9649 20.1827L49.439 25.2356L47.5923 24.3117L49.1954 21.1066L46.207 19.6129H44.6307L41.6423 21.1076L43.2454 24.3128L41.3987 25.2366L38.8728 20.1837L42.0903 18.5745C41.599 18.0263 41.2903 17.3089 41.2903 16.5161V15.4839H37.1613V13.4194H22.5197C22.0924 14.6178 20.9569 15.4839 19.6129 15.4839ZM37.1613 7.22581H22.7097V11.3548H37.1613V7.22581ZM46.4516 17.5484C47.0214 17.5484 47.4839 17.0859 47.4839 16.5161V15.4839H43.3548V16.5161C43.3548 17.0859 43.8173 17.5484 44.3871 17.5484H46.4516ZM40.2581 5.16129C39.6883 5.16129 39.2258 5.62374 39.2258 6.19355V13.4194H49.5484V6.19355C49.5484 5.62374 49.0859 5.16129 48.5161 5.16129H40.2581ZM20.6452 6.19355C20.6452 5.62374 20.1827 5.16129 19.6129 5.16129H9.34194C9.96439 6.40723 10.3226 7.80594 10.3226 9.29032C10.3226 10.7747 9.96336 12.1734 9.34194 13.4194H19.6129C20.1827 13.4194 20.6452 12.9569 20.6452 12.3871V6.19355ZM2.06452 16.4428C5.56181 15.9401 8.25806 12.9249 8.25806 9.29032C8.25806 5.65574 5.56181 2.64052 2.06452 2.13781V4.23329C4.41703 4.71329 6.19355 6.79845 6.19355 9.29032C6.19355 11.7822 4.41703 13.8674 2.06452 14.3474V16.4428ZM2.06452 6.38348V12.1972C3.26297 11.7698 4.12903 10.6343 4.12903 9.29032C4.12903 7.94632 3.26297 6.81084 2.06452 6.38348ZM55.552 45.4193H58.8387C61.6846 45.4193 64 47.7347 64 50.5806V52.6452C64 55.4911 61.6846 57.8064 58.8387 57.8064V64H5.16129V57.8064C2.31535 57.8064 0 55.4911 0 52.6452V50.5806C0 48.0144 1.888 45.8963 4.34477 45.5019C4.21058 45.1551 4.12903 44.7814 4.12903 44.3871V29.9355C4.12903 28.2281 5.51845 26.8387 7.22581 26.8387H25.8064C27.5138 26.8387 28.9032 28.2281 28.9032 29.9355V44.3871C28.9032 44.7504 28.8289 45.0952 28.7123 45.4193H31.1577C31.0421 45.0952 30.9677 44.7504 30.9677 44.3871V29.9355C30.9677 28.2281 32.3572 26.8387 34.0645 26.8387H52.6452C54.3525 26.8387 55.7419 28.2281 55.7419 29.9355V44.3871C55.7419 44.7504 55.6676 45.0952 55.552 45.4193ZM18.5806 51.6129C18.5806 53.3203 19.9701 54.7097 21.6774 54.7097C23.3848 54.7097 24.7742 53.3203 24.7742 51.6129C24.7742 49.9055 23.3848 48.5161 21.6774 48.5161C19.9701 48.5161 18.5806 49.9055 18.5806 51.6129ZM14.4516 41.6908V45.4193H18.5806V41.6908L16.5161 42.3783L14.4516 41.6908ZM14.4516 51.6129C14.4516 49.9055 13.0622 48.5161 11.3548 48.5161C9.64748 48.5161 8.25806 49.9055 8.25806 51.6129C8.25806 53.3203 9.64748 54.7097 11.3548 54.7097C13.0622 54.7097 14.4516 53.3203 14.4516 51.6129ZM14.4196 47.4839C15.6841 48.4253 16.5161 49.919 16.5161 51.6129C16.5161 53.3068 15.6841 54.8005 14.4196 55.7419H18.6126C17.3481 54.8005 16.5161 53.3068 16.5161 51.6129C16.5161 49.919 17.3481 48.4253 18.6126 47.4839H14.4196ZM24.7422 47.4839C26.0067 48.4253 26.8387 49.919 26.8387 51.6129C26.8387 53.3068 26.0067 54.8005 24.7422 55.7419H28.9352C27.6707 54.8005 26.8387 53.3068 26.8387 51.6129C26.8387 49.919 27.6707 48.4253 28.9352 47.4839H25.8064H24.7422ZM28.9032 51.6129C28.9032 53.3203 30.2926 54.7097 32 54.7097C33.7074 54.7097 35.0968 53.3203 35.0968 51.6129C35.0968 49.9055 33.7074 48.5161 32 48.5161C30.2926 48.5161 28.9032 49.9055 28.9032 51.6129ZM35.0648 47.4839C36.3293 48.4253 37.1613 49.919 37.1613 51.6129C37.1613 53.3068 36.3293 54.8005 35.0648 55.7419H49.5804C48.3159 54.8005 47.4839 53.3068 47.4839 51.6129C47.4839 49.919 48.3159 48.4253 49.5804 47.4839H35.0648ZM41.2903 41.6908V45.4193H45.4194V41.6908L43.3548 42.3783L41.2903 41.6908ZM49.5484 51.6129C49.5484 53.3203 50.9378 54.7097 52.6452 54.7097C54.3525 54.7097 55.7419 53.3203 55.7419 51.6129C55.7419 49.9055 54.3525 48.5161 52.6452 48.5161C50.9378 48.5161 49.5484 49.9055 49.5484 51.6129ZM45.4194 32.6317V28.9032H41.2903V32.6317L43.3548 31.9443L45.4194 32.6317ZM33.0323 29.9355V44.3871C33.0323 44.9569 33.4947 45.4193 34.0645 45.4193H39.2258V38.8253L43.3548 40.2023L47.4839 38.8253V45.4193H52.6452C53.215 45.4193 53.6774 44.9569 53.6774 44.3871V29.9355C53.6774 29.3657 53.215 28.9032 52.6452 28.9032H47.4839V35.4973L43.3548 34.1203L39.2258 35.4973V28.9032H34.0645C33.4947 28.9032 33.0323 29.3657 33.0323 29.9355ZM18.5806 28.9032H14.4516V32.6317L16.5161 31.9443L18.5806 32.6317V28.9032ZM7.22581 28.9032C6.656 28.9032 6.19355 29.3657 6.19355 29.9355V44.3871C6.19355 44.9569 6.656 45.4193 7.22581 45.4193H12.3871V38.8253L16.5161 40.2023L20.6452 38.8253V45.4193H25.8064C26.3763 45.4193 26.8387 44.9569 26.8387 44.3871V29.9355C26.8387 29.3657 26.3763 28.9032 25.8064 28.9032H20.6452V35.4973L16.5161 34.1203L12.3871 35.4973V28.9032H7.22581ZM2.06452 50.5806V52.6452C2.06452 54.3525 3.45394 55.7419 5.16129 55.7419H8.29006C7.02555 54.8005 6.19355 53.3068 6.19355 51.6129C6.19355 49.919 7.02555 48.4253 8.29006 47.4839H7.22581H5.16129C3.45394 47.4839 2.06452 48.8733 2.06452 50.5806ZM7.22581 57.8064V61.9355H56.7742V57.8064H7.22581ZM58.8387 55.7419C60.5461 55.7419 61.9355 54.3525 61.9355 52.6452V50.5806C61.9355 48.8733 60.5461 47.4839 58.8387 47.4839H55.7099C56.9745 48.4253 57.8064 49.919 57.8064 51.6129C57.8064 53.3068 56.9745 54.8005 55.7099 55.7419H58.8387ZM12.3871 51.6129C12.3871 52.183 11.925 52.6452 11.3549 52.6452C10.7847 52.6452 10.3226 52.183 10.3226 51.6129C10.3226 51.0428 10.7847 50.5807 11.3549 50.5807C11.925 50.5807 12.3871 51.0428 12.3871 51.6129ZM21.6774 52.6452C22.2475 52.6452 22.7097 52.183 22.7097 51.6129C22.7097 51.0428 22.2475 50.5807 21.6774 50.5807C21.1073 50.5807 20.6452 51.0428 20.6452 51.6129C20.6452 52.183 21.1073 52.6452 21.6774 52.6452ZM33.0323 51.6129C33.0323 52.183 32.5701 52.6452 32 52.6452C31.4299 52.6452 30.9677 52.183 30.9677 51.6129C30.9677 51.0428 31.4299 50.5807 32 50.5807C32.5701 50.5807 33.0323 51.0428 33.0323 51.6129ZM52.6452 52.6452C53.2153 52.6452 53.6774 52.183 53.6774 51.6129C53.6774 51.0428 53.2153 50.5807 52.6452 50.5807C52.0751 50.5807 51.6129 51.0428 51.6129 51.6129C51.6129 52.183 52.0751 52.6452 52.6452 52.6452Z" fill="#C62828"/>
</svg>
