<svg width="52" height="64" viewBox="0 0 52 64" fill="none" xmlns="http://www.w3.org/2000/svg">
<path d="M52 32C52 26.372 50.1709 21.1643 47.0788 16.9188L51.739 12.2933L45.8555 6.45363L41.1953 11.0791C37.7147 8.58115 33.5908 6.91935 29.12 6.38558V2.06452H31.2V0H20.8V2.06452H22.88V6.38558C18.4092 6.91935 14.2853 8.58115 10.8057 11.0781L6.14555 6.45262L0.262031 12.2923L4.92223 16.9178C1.82914 21.1643 0 26.372 0 32C0 41.9738 5.83426 51.0701 14.8962 55.3271C16.1149 60.2954 20.6243 64 26 64C28.632 64 31.203 63.0887 33.2394 61.435L31.9206 59.8377C30.2565 61.19 28.1526 61.9355 26 61.9355C20.8386 61.9355 16.64 57.7681 16.64 52.6452C16.64 50.5086 17.3911 48.4204 18.7535 46.7686L17.1443 45.4597C16.383 46.3836 15.7864 47.4219 15.3537 48.5222C14.4371 47.94 13.5845 47.2838 12.7887 46.5726L14.9688 44.4088L13.4982 42.9491L11.313 45.1179C8.32508 41.818 6.51574 37.564 6.27555 33.0323H9.36V30.9677H6.29281C6.53758 26.3392 8.3982 22.1386 11.3339 18.9027L13.4992 21.0519L14.9698 19.5922L12.8045 17.443C16.0646 14.5282 20.2968 12.6825 24.96 12.4395V15.4839H27.04V12.4395C31.7032 12.6825 35.9353 14.5292 39.1955 17.443L37.0302 19.5922L38.5008 21.0519L40.6661 18.9027C43.6028 22.1386 45.4624 26.3392 45.7072 30.9677H42.64V33.0323H45.7245C45.4843 37.564 43.6749 41.818 40.687 45.1179L38.5018 42.9491L37.0312 44.4088L39.2113 46.5726C38.4155 47.2838 37.5639 47.94 36.6473 48.5222C34.9802 44.2964 30.841 41.2903 26 41.2903C23.368 41.2903 20.797 42.2016 18.7606 43.8553L20.0794 45.4526C21.7435 44.1003 23.8474 43.3548 26 43.3548C31.1614 43.3548 35.36 47.5222 35.36 52.6452C35.36 54.7818 34.6089 56.87 33.2465 58.5217L34.8557 59.8306C35.9435 58.5116 36.7057 56.9652 37.1084 55.3241C46.1678 51.065 52 41.9748 52 32ZM45.8555 9.37198L48.7977 12.2923L45.7839 15.2838C44.882 14.2349 43.8984 13.2586 42.8416 12.3634L45.8555 9.37198ZM24.96 2.06452H27.04V6.21925C26.6947 6.20615 26.3484 6.19355 26 6.19355C25.6516 6.19355 25.3053 6.20615 24.96 6.21925V2.06452ZM3.20227 12.2923L6.14453 9.37198L9.1584 12.3634C8.10164 13.2586 7.11801 14.2349 6.21613 15.2838L3.20227 12.2923ZM37.4309 52.8589C37.4319 52.7878 37.44 52.7162 37.44 52.6452C37.44 51.938 37.3664 51.2475 37.2404 50.5766C43.7932 46.6613 47.84 39.62 47.84 32C47.84 20.0474 38.0423 10.3226 26 10.3226C13.9577 10.3226 4.16 20.0474 4.16 32C4.16 39.621 8.20574 46.6603 14.7586 50.5736C14.6306 51.2545 14.56 51.9476 14.56 52.6452C14.56 52.7172 14.5691 52.7878 14.5702 52.8599C6.92859 48.7288 2.08 40.7248 2.08 32C2.08 18.9078 12.8096 8.25806 26 8.25806C39.1904 8.25806 49.92 18.9078 49.92 32C49.92 40.7268 45.0724 48.7258 37.4309 52.8589Z" fill="#C62828"/>
<path d="M24.9599 17.5483V29.0932C23.7523 29.5206 22.8799 30.6562 22.8799 32C22.8799 33.7071 24.2799 35.0967 25.9999 35.0967C27.3537 35.0967 28.4978 34.2308 28.9284 33.0322H36.3999V30.9677H28.9284C28.6146 30.0932 27.9209 29.4047 27.0399 29.0932V17.5483H24.9599ZM25.9999 33.0322C25.4261 33.0322 24.9599 32.5695 24.9599 32C24.9599 31.4304 25.4261 30.9677 25.9999 30.9677C26.5737 30.9677 27.0399 31.4304 27.0399 32C27.0399 32.5695 26.5737 33.0322 25.9999 33.0322Z" fill="#C62828"/>
<path d="M26.6663 54.6667C28.873 54.6667 30.6663 52.8734 30.6663 50.6667C30.6663 48.4601 28.873 46.6667 26.6663 46.6667H24.6663H22.6663V52.6667H21.333V54.6667H22.6663V55.3334H21.333V57.3334H22.6663V58.6667H24.6663V57.3334H27.333V55.3334H24.6663V54.6667H26.6663ZM24.6663 48.6667H26.6663C27.773 48.6667 28.6663 49.5601 28.6663 50.6667C28.6663 51.7734 27.773 52.6667 26.6663 52.6667H24.6663V48.6667Z" fill="#C62828"/>
</svg>
