<svg width="46" height="48" viewBox="0 0 46 48" fill="none" xmlns="http://www.w3.org/2000/svg">
<path d="M7.66663 3.09668H6.1333V4.64507H7.66663V3.09668Z" fill="white"/>
<path d="M9.96644 5.41943H8.43311V6.96782H9.96644V5.41943Z" fill="white"/>
<path d="M14.5665 3.09668H13.0332V4.64507H14.5665V3.09668Z" fill="white"/>
<path d="M19.9332 3.87109H18.3999V5.41948H19.9332V3.87109Z" fill="white"/>
<path d="M23.0001 6.1936H21.4668V7.74199H23.0001V6.1936Z" fill="white"/>
<path d="M16.0997 8.51611H14.5664V10.0645H16.0997V8.51611Z" fill="white"/>
<path d="M13.7999 6.1936H12.2666V7.74199H13.7999V6.1936Z" fill="white"/>
<path d="M19.9332 7.74194H18.3999V9.29033H19.9332V7.74194Z" fill="white"/>
<path d="M11.5001 9.29028H9.9668V10.8387H11.5001V9.29028Z" fill="white"/>
<path d="M42.1667 14.9381V5.41935H29.9V14.9497C28.4127 15.3987 27.1745 16.4717 26.5359 17.9241C26.5274 17.921 26.5205 17.9164 26.5121 17.9141L24.5333 17.2483V13.1613H26.0667V11.6129H24.6851L26.0544 4.00955L26.0667 0H3.06667V3.87097L4.44973 11.6129H3.06667V13.1613H4.6V17.2483L2.62123 17.9141C1.0534 18.4421 0 19.9185 0 21.5868V48H28.3667H29.1333H46V20.129C46 17.6795 44.38 15.6062 42.1667 14.9381ZM4.6 1.54839H24.5333V3.80129L23.1273 11.6129H6.00607L5.86653 10.8387H6.9V9.29032H5.58823L4.6 3.80129V1.54839ZM16.8667 14.7097V15.4839H13.8V13.9355H12.2667V15.4839H6.13333V13.1613H7.66667V14.7097H9.2V13.1613H19.9333V14.7097H21.4667V13.1613H23V15.4839H18.4V14.7097H16.8667ZM3.10653 19.3827L6.13333 18.3646V17.0323H23V18.3646L26.0268 19.3827C26.7459 19.625 27.2811 20.1995 27.4957 20.9032H1.6376C1.8515 20.1995 2.3874 19.625 3.10653 19.3827ZM27.6 46.4516H1.53333V22.4516H27.6V46.4516ZM31.4333 10.0645H37.5667V8.51613H31.4333V6.96774H40.6333V8.51613H39.1V10.0645H40.6333V11.6129H31.4333V10.0645ZM31.4333 13.1613H40.6333V14.7097H31.4333V13.1613ZM27.8745 18.7316C28.4395 17.2568 29.8356 16.2581 31.4333 16.2581H40.6333C42.4841 16.2581 44.0327 17.5905 44.3892 19.3548H28.4303C28.2701 19.1265 28.0807 18.9213 27.8745 18.7316ZM44.4667 46.4516H29.1333V21.5868C29.1333 21.3538 29.108 21.127 29.0689 20.9032H44.4667V46.4516Z" fill="white"/>
<path d="M26.0665 24H24.5332V41.8064H26.0665V24Z" fill="white"/>
<path d="M26.0665 43.3547H24.5332V44.9031H26.0665V43.3547Z" fill="white"/>
<path d="M42.9332 22.4517H41.3999V41.8065H42.9332V22.4517Z" fill="white"/>
<path d="M42.9332 43.3547H41.3999V44.9031H42.9332V43.3547Z" fill="white"/>
</svg>
