<svg width="47" height="48" viewBox="0 0 47 48" fill="none" xmlns="http://www.w3.org/2000/svg">
<path d="M47 35.6129L43.1624 27.871H39.6134C38.0729 24.1463 34.4441 21.6774 30.4077 21.6774C26.3713 21.6774 22.7425 24.1463 21.202 27.871H17.3598V15.4839C17.3598 15.0565 17.7037 14.7097 18.1273 14.7097H28.2072L30.8866 19.1017C31.2742 19.735 31.9727 20.129 32.7103 20.129C33.4479 20.129 34.1463 19.735 34.5339 19.1017L39.2956 11.2963C40.0086 10.1272 40.3855 8.784 40.3855 7.41135C40.3855 3.32516 37.089 0 33.038 0H32.3825C28.3316 0 25.035 3.32516 25.035 7.41135C25.035 8.04929 25.1248 8.67948 25.2837 9.29032H15.7396C16.7381 8.30555 17.3598 6.93523 17.3598 5.41935C17.3598 2.43174 14.949 0 11.9872 0C9.0253 0 6.61451 2.43174 6.61451 5.41935C6.61451 7.00413 7.29684 8.42787 8.3752 9.41961C5.19075 10.039 2.7769 12.8679 2.7769 16.2581V23.2258C2.7769 24.9337 4.15383 26.3226 5.84699 26.3226H6.61451V27.871H3.83761L0 35.6129H3.54442V48H43.4556V35.6129H47ZM44.5163 34.0645H33.1846L30.882 29.4194H42.2137L44.5163 34.0645ZM37.9248 27.871H34.5393L36.3238 25.6707C36.9646 26.3048 37.5065 27.0457 37.9248 27.871ZM30.4077 23.2258C32.1323 23.2258 33.7671 23.7615 35.1333 24.6929L32.5552 27.871H22.8906C24.3182 25.0545 27.2117 23.2258 30.4077 23.2258ZM32.3825 1.54839H33.038C36.2432 1.54839 38.8504 4.17832 38.8504 7.41135C38.8504 8.49677 38.5519 9.55974 37.9885 10.4841L33.2268 18.2895C33.0081 18.648 32.4125 18.648 32.1937 18.2895L27.432 10.4841C26.8687 9.56052 26.5701 8.49755 26.5701 7.41135C26.5701 4.17832 29.1774 1.54839 32.3825 1.54839ZM12.7294 18.2857L11.9872 19.0343L11.245 18.2857L11.8329 10.8387H12.1414L12.7294 18.2857ZM8.14955 5.41935C8.14955 3.2849 9.87111 1.54839 11.9872 1.54839C14.1032 1.54839 15.8248 3.2849 15.8248 5.41935C15.8248 7.55381 14.1032 9.29032 11.9872 9.29032C9.87111 9.29032 8.14955 7.55381 8.14955 5.41935ZM6.61451 14.7097V24.7742H5.84699C5.00041 24.7742 4.31194 24.0797 4.31194 23.2258V16.2581C4.31194 13.2705 6.72273 10.8387 9.6846 10.8387H10.2925L9.65927 18.8756L11.9872 21.2237L14.3151 18.8756L13.6819 10.8387H25.887C25.9661 10.9912 26.0344 11.1492 26.1242 11.2963L27.2624 13.1613H18.1273C16.8579 13.1613 15.8248 14.2034 15.8248 15.4839V27.871H12.7547V23.2258H11.2196V27.871H8.14955V14.7097H6.61451ZM4.78627 29.4194H26.8633L24.5607 34.0645H2.4837L4.78627 29.4194ZM5.07946 35.6129H25.5094L28.1051 30.3763V46.4516H5.07946V35.6129ZM41.9205 46.4516H29.6402V30.3763L32.2359 35.6129H41.9205V46.4516Z" fill="white"/>
<path d="M32.7106 12.387C35.2503 12.387 37.3157 10.3036 37.3157 7.74184C37.3157 5.18003 35.2503 3.09668 32.7106 3.09668C30.1709 3.09668 28.1055 5.18003 28.1055 7.74184C28.1055 10.3036 30.1709 12.387 32.7106 12.387ZM32.7106 4.64507C34.4038 4.64507 35.7807 6.03397 35.7807 7.74184C35.7807 9.44971 34.4038 10.8386 32.7106 10.8386C31.0174 10.8386 29.6405 9.44971 29.6405 7.74184C29.6405 6.03397 31.0174 4.64507 32.7106 4.64507Z" fill="white"/>
<path d="M30.4072 24.7742H31.9423V26.3226H30.4072V24.7742Z" fill="white"/>
<path d="M27.3379 24.7742H28.8729V26.3226H27.3379V24.7742Z" fill="white"/>
<path d="M38.8506 43.3547H40.3856V44.9031H38.8506V43.3547Z" fill="white"/>
<path d="M35.7803 43.3547H37.3153V44.9031H35.7803V43.3547Z" fill="white"/>
<path d="M32.71 43.3547H34.245V44.9031H32.71V43.3547Z" fill="white"/>
<path d="M25.0347 40.2581H20.4296C19.583 40.2581 18.8945 40.9525 18.8945 41.8064V43.3548C18.8945 44.2088 19.583 44.9032 20.4296 44.9032H25.0347C25.8813 44.9032 26.5698 44.2088 26.5698 43.3548V41.8064C26.5698 40.9525 25.8813 40.2581 25.0347 40.2581ZM25.0347 43.3548H20.4296L20.428 41.8064H20.4296H25.0347V43.3548Z" fill="white"/>
<path d="M5.84668 30.9678H7.38172V32.5162H5.84668V30.9678Z" fill="white"/>
<path d="M8.91699 30.9678H10.452V32.5162H8.91699V30.9678Z" fill="white"/>
<path d="M11.9873 30.9678H13.5223V32.5162H11.9873V30.9678Z" fill="white"/>
</svg>
