<svg width="48" height="47" viewBox="0 0 48 47" fill="none" xmlns="http://www.w3.org/2000/svg">
<path d="M17.0975 14.4989V12.9727C13.6897 12.9727 10.917 15.7114 10.917 19.0774H12.4621C12.4621 16.5524 14.5411 14.4989 17.0975 14.4989Z" fill="white"/>
<path d="M45.6823 0H27.1408C25.863 0 24.8232 1.02713 24.8232 2.2893V4.18941C23.5832 3.7491 22.2111 3.85441 21.0554 4.48549C20.2357 3.14168 18.7493 2.2893 17.0589 2.2893C15.4327 2.2893 13.9571 3.14168 13.1389 4.48626C11.7491 3.72468 10.041 3.71629 8.63337 4.51907L8.56539 4.55799C7.15778 5.36077 6.31182 6.82744 6.28324 8.39561C4.69563 8.42384 3.21076 9.25944 2.39803 10.6498L2.35863 10.717C1.54589 12.1073 1.55671 13.7953 2.32541 15.1673C0.964156 15.9762 0.101206 17.433 0.101206 19.0385V19.1156C0.101206 20.7219 0.964156 22.1795 2.32541 22.9876C1.55594 24.3596 1.54589 26.0468 2.35863 27.438L2.39803 27.5051C3.21154 28.8955 4.6964 29.7311 6.28324 29.7593C6.29174 30.2263 6.38135 30.6811 6.52737 31.1153L0 41.6369L7.26439 39.8429L9.07605 46.9992L15.9063 35.7084C16.2987 35.8115 16.7105 35.8656 17.1362 35.8656C17.5333 35.8656 17.9211 35.813 18.2935 35.7168L25.1191 47L26.9307 39.8437L34.1951 41.6377L27.6677 31.1161C27.8145 30.6819 27.9034 30.2271 27.9119 29.7601C29.5002 29.7318 30.9851 28.8963 31.7971 27.5059L31.8365 27.4387C32.65 26.0484 32.6392 24.3604 31.8697 22.9883C33.0146 22.3077 33.7996 21.1622 34.0228 19.8413H45.6823C46.9601 19.8413 48 18.8142 48 17.552V2.2893C48 1.02713 46.9601 0 45.6823 0ZM37.1841 3.05239V4.57859H35.639V3.05239H34.0939V4.57859H32.5488V1.5262H40.2744V4.57859H38.7293V3.05239H37.1841ZM24.8232 14.0265C23.1614 11.5548 20.3207 9.92028 17.0976 9.92028C11.9855 9.92028 7.82682 14.028 7.82682 19.0775C7.82682 24.1269 11.9855 28.2346 17.0976 28.2346C22.0002 28.2346 26.0152 24.4543 26.3366 19.6902C26.5885 19.7826 26.8573 19.8406 27.1408 19.8406H27.874C27.4754 25.3753 22.8006 29.7608 17.0976 29.7608C11.1334 29.7608 6.28169 24.9686 6.28169 19.0775C6.28169 13.1863 11.1334 8.39408 17.0976 8.39408C20.0008 8.39408 22.796 9.57078 24.8232 11.6166V14.0265ZM24.8232 19.0775C24.8232 23.2852 21.3575 26.7084 17.0976 26.7084C12.8376 26.7084 9.37194 23.2852 9.37194 19.0775C9.37194 14.8697 12.8376 11.4465 17.0976 11.4465C21.3575 11.4465 24.8232 14.8697 24.8232 19.0775ZM9.66783 43.0456L8.38924 37.9924L3.29266 39.2507L7.39959 32.6309C7.72716 33.0071 8.11421 33.339 8.56616 33.5969L8.63414 33.6359C10.0417 34.4379 11.7514 34.428 13.1405 33.6687C13.4843 34.2326 13.9509 34.7034 14.4956 35.0674L9.66783 43.0456ZM30.9024 39.2515L25.8059 37.9931L24.5273 43.0464L19.7034 35.0735C20.2442 34.7088 20.7108 34.2364 21.0562 33.6694C22.4452 34.4287 24.1534 34.4386 25.5617 33.6366L25.6297 33.5977C26.0817 33.3398 26.4687 33.0078 26.7963 32.6316L30.9024 39.2515ZM30.4644 21.9566L29.3627 22.3229L30.1314 23.1845C31.0013 24.1589 31.1481 25.5615 30.4984 26.6741L30.459 26.7413C29.8085 27.8531 28.5106 28.4308 27.2158 28.1721L26.0763 27.9454L26.3057 29.071C26.5653 30.3446 25.9835 31.632 24.8572 32.2745L24.7892 32.3134C23.6636 32.9552 22.242 32.8094 21.2562 31.9509L20.384 31.1917L20.0132 32.2798C19.5929 33.5122 18.4372 34.3394 17.0589 34.3394C15.7572 34.3394 14.6014 33.5122 14.1819 32.2806L13.8111 31.1924L12.9389 31.9517C11.9531 32.8109 10.5331 32.9575 9.40593 32.3142L9.33795 32.2752C8.21155 31.6327 7.62981 30.3454 7.88939 29.0718L8.11884 27.9462L6.97932 28.1728C5.68759 28.4308 4.3866 27.8546 3.73611 26.742L3.69671 26.6749C3.04621 25.5623 3.19377 24.1597 4.06367 23.1852L4.83237 22.3237L3.7307 21.9574C2.48378 21.5423 1.64633 20.4007 1.64633 19.1156V19.0385C1.64633 17.7535 2.48378 16.6119 3.7307 16.1975L4.83237 15.8312L4.06367 14.9697C3.19454 13.9952 3.04698 12.5927 3.69671 11.4801L3.73611 11.4129C4.3866 10.3003 5.693 9.72416 6.97932 9.98209L8.11884 10.2087L7.88939 9.08316C7.62904 7.80879 8.21155 6.52144 9.33795 5.87967L9.40593 5.84076C10.5331 5.19746 11.9523 5.34398 12.9389 6.20323L13.8111 6.96251L14.1819 5.87433C14.6022 4.64269 15.7579 3.81549 17.1362 3.81549C18.4379 3.81549 19.5937 4.64269 20.0132 5.87433L20.384 6.96251L21.2562 6.20323C22.2444 5.34551 23.6643 5.19899 24.7892 5.84076L24.8232 5.8606V9.56849C22.643 7.84465 19.9166 6.86789 17.0976 6.86789C10.282 6.86789 4.73657 12.3454 4.73657 19.0775C4.73657 25.8095 10.282 31.287 17.0976 31.287C23.6527 31.287 29.0174 26.217 29.4191 19.8406H32.4483C32.1996 20.8135 31.4695 21.6232 30.4644 21.9566ZM46.4549 17.5513C46.4549 17.9725 46.1088 18.3144 45.6823 18.3144H27.1408C26.7144 18.3144 26.3683 17.9725 26.3683 17.5513V2.2893C26.3683 1.86807 26.7144 1.5262 27.1408 1.5262H31.0037V6.10479H41.8195V1.5262H45.6823C46.1088 1.5262 46.4549 1.86807 46.4549 2.2893V17.5513Z" fill="white"/>
<path d="M40.2744 15.262H41.8195V16.7882H40.2744V15.262Z" fill="white"/>
<path d="M43.3643 15.262H44.9094V16.7882H43.3643V15.262Z" fill="white"/>
<path d="M37.1846 15.262H38.7297V16.7882H37.1846V15.262Z" fill="white"/>
<path d="M37.1846 12.2095H44.9102V13.7357H37.1846V12.2095Z" fill="white"/>
<path d="M15.5524 22.5769L13.7809 20.8271L12.6885 21.9061L15.5524 24.735L23.0516 17.3276L21.9592 16.2485L15.5524 22.5769Z" fill="white"/>
</svg>
