<svg width="47" height="48" viewBox="0 0 47 48" fill="none" xmlns="http://www.w3.org/2000/svg">
<path d="M37.7544 42.5804V34.0643H38.525V33.29C38.525 31.1556 36.7968 29.419 34.6724 29.419H28.5085V3.09675C28.5085 1.38883 27.1263 0 25.4265 0C23.7268 0 22.3446 1.38883 22.3446 3.09675V29.4192H16.1807C14.0565 29.4192 12.3281 31.1556 12.3281 33.2902V34.0644H13.0987V42.5806C13.0987 45.569 15.5181 48 18.4922 48H30.8201V47.0848C31.9227 47.6624 33.2478 48 34.6726 48H41.6071V46.4516C39.4824 46.4513 37.7544 44.7148 37.7544 42.5804ZM23.8856 3.09675C23.8856 2.24287 24.5767 1.54838 25.4265 1.54838C26.2763 1.54838 26.9675 2.24287 26.9675 3.09675V25.5483H23.8856V3.09675ZM23.8856 27.0967H26.9675V29.4193H23.8856V27.0967ZM16.1807 30.9675H34.6724C35.6772 30.9675 36.5339 31.6148 36.8522 32.5159H14.0009C14.319 31.6148 15.176 30.9675 16.1807 30.9675ZM18.492 46.4515C16.3679 46.4513 14.6395 44.7148 14.6395 42.5803V34.0643H18.492V42.5804C18.492 44.0963 19.1162 45.4666 20.1178 46.4515H18.492ZM34.6724 46.4515C31.6983 46.4513 29.2789 44.7148 29.2789 42.5803H27.7379C27.7379 44.1263 28.07 45.4826 28.6218 46.4513H23.8856C21.7614 46.4513 20.033 44.7148 20.033 42.5803V34.0643H32.3609V37.161H33.9019V34.0643H36.2134V42.5804C36.2134 44.0954 36.8352 45.4674 37.8353 46.4515H34.6724Z" fill="#C62828"/>
<path d="M33.9013 38.7094H32.3604V40.2578H33.9013V38.7094Z" fill="#C62828"/>
<path d="M5.39352 39.4836H3.85254C3.85254 40.8718 4.18457 42.1832 4.77334 43.3423C2.77936 41.3742 1.54115 38.6367 1.54115 35.6128H0C0 42.4426 5.5306 47.9998 12.3279 47.9998V46.4514C8.50457 46.4512 5.39352 43.3251 5.39352 39.4836Z" fill="#C62828"/>
<path d="M47 46.4513H43.1475V47.9997H47V46.4513Z" fill="#C62828"/>
<path d="M6.93457 37.9353C6.93457 39.2157 7.97159 40.2579 9.24612 40.2579C10.5207 40.2579 11.5577 39.2159 11.5577 37.9353C11.5577 36.6546 10.5207 35.6126 9.24612 35.6126C7.97159 35.6126 6.93457 36.6546 6.93457 37.9353ZM10.0165 37.9353C10.0165 38.3619 9.67053 38.7095 9.24596 38.7095C8.82139 38.7095 8.47539 38.3619 8.47539 37.9353C8.47539 37.5086 8.82139 37.161 9.24596 37.161C9.67053 37.161 10.0165 37.5086 10.0165 37.9353Z" fill="#C62828"/>
<path d="M6.9345 28.6451C8.63427 28.6451 10.0165 27.2563 10.0165 25.5484C10.0165 23.8404 8.63427 22.4516 6.9345 22.4516C5.23474 22.4516 3.85254 23.8404 3.85254 25.5484C3.85254 27.2561 5.23474 28.6451 6.9345 28.6451ZM6.9345 24C7.7843 24 8.47548 24.6945 8.47548 25.5484C8.47548 26.4022 7.7843 27.0967 6.9345 27.0967C6.0847 27.0967 5.39352 26.4022 5.39352 25.5484C5.39352 24.6945 6.0847 24 6.9345 24Z" fill="#C62828"/>
<path d="M5.39352 36.3869H3.85254V37.9353H5.39352V36.3869Z" fill="#C62828"/>
<path d="M1.54098 32.5159H0V34.0642H1.54098V32.5159Z" fill="#C62828"/>
<path d="M1.54098 29.4191H0V30.9675H1.54098V29.4191Z" fill="#C62828"/>
</svg>
