<svg width="35" height="48" viewBox="0 0 35 48" fill="none" xmlns="http://www.w3.org/2000/svg">
<path d="M1.90189 35.4598H11.6986L0 19.4161L14.1575 0L35 28.5839L20.8425 48L19.4976 46.1557H5.24434C4.32304 46.1557 3.57311 45.1272 3.57311 43.8637C3.57311 42.5998 4.32304 41.5717 5.24434 41.5717H6.91557C7.22321 41.5717 7.47264 41.2285 7.47264 40.8078C7.47264 40.3866 7.22321 40.0438 6.91557 40.0438H1.90189C0.980591 40.0438 0.230663 39.0153 0.230663 37.7518C0.230663 36.4879 0.980591 35.4598 1.90189 35.4598ZM8.58679 9.80055V11.7762H11.9292V7.19224H10.4887L8.58679 9.80055ZM11.9292 17.8881V13.3042H8.58679V17.8881H11.9292ZM20.8425 24V19.4161H17.5V24H20.8425ZM17.5 25.528V30.1119H20.8425V25.528H17.5ZM21.9566 24H25.2991V19.4161H21.9566V24ZM16.3858 19.4161H13.0434V24H16.3858V19.4161ZM16.3858 17.8881V13.3042H13.0434V17.8881H16.3858ZM13.0434 11.7762H16.3858V7.19224H13.0434V11.7762ZM17.5 7.19224V11.7762H18.6141V13.3042H17.5V17.8881H20.8425V13.3042H19.7283V11.7762H20.8425V11.3285L17.8264 7.19224H17.5ZM21.9566 13.3042V17.8881H25.2991V17.4404L22.283 13.3042H21.9566ZM26.4132 19.4161V24H30.0821L26.7396 19.4161H26.4132ZM26.4132 25.528V27.056H25.2991V25.528H21.9566V30.1119H25.2991V28.5839H26.4132V30.1119H29.7557V25.528H26.4132ZM25.2991 36.2238V31.6399H21.9566V36.2238H25.2991ZM29.7557 31.6399H26.4132V36.2238H27.8538L29.7557 33.6155V31.6399ZM21.7142 37.7518L24.2268 41.1972L26.7396 37.7518H21.7142ZM20.6001 36.2238H20.8425V31.6399H17.5V31.9723L20.6001 36.2238ZM16.1435 30.1119H16.3858V25.528H13.0434V25.8604L16.1435 30.1119ZM11.6869 24H11.9292V19.4161H8.34443L11.6869 24ZM7.23028 17.8881H7.47264V11.3285L4.96036 14.7739L7.23028 17.8881ZM11.6028 5.66426H16.7123L14.1575 2.16066L11.6028 5.66426ZM31.1962 25.528H30.8698V32.0875L33.4245 28.5839L31.1962 25.528ZM21.7259 44.6277L5.12574 21.8625L5.91348 20.7821L22.5137 43.5474L23.4391 42.2783L4.17208 15.855L3.2467 17.1241L5.12302 19.6981L4.33529 20.778L2.45897 18.2044L1.57548 19.4161L20.8425 45.8393L21.7259 44.6277ZM1.90189 38.5158H6.91557C7.83714 38.5158 8.58679 39.5439 8.58679 40.8078C8.58679 42.0713 7.83714 43.0997 6.91557 43.0997H5.24434C4.93697 43.0997 4.68727 43.4426 4.68727 43.8637C4.68727 44.2845 4.93697 44.6277 5.24434 44.6277H18.3835L12.8127 36.9878H1.90189C1.59452 36.9878 1.34481 37.3306 1.34481 37.7518C1.34481 38.1726 1.59452 38.5158 1.90189 38.5158Z" fill="#C62828"/>
</svg>
