<svg width="48" height="48" viewBox="0 0 48 48" fill="none" xmlns="http://www.w3.org/2000/svg">
<path d="M30.2114 46.4441C30.3902 41.112 32.3427 38.3791 32.3613 38.3534L33.2903 37.1087H31.7419C30.1185 37.1087 27.4026 37.766 26.1801 39.9568L25.8356 39.0341C27.1463 37.3849 27.871 35.342 27.871 33.2189C27.871 28.0712 23.7035 23.8835 18.5806 23.8835C14.6245 23.8835 11.1151 26.4196 9.82142 30.1297C9.64413 30.1149 9.46761 30.1071 9.29032 30.1071C5.87535 30.1071 3.09677 32.8992 3.09677 36.3307C3.09677 36.6108 3.12077 36.887 3.15716 37.1616C2.8591 37.1258 2.57652 37.1087 2.32258 37.1087H0.774194L1.70323 38.3534C1.72335 38.3806 3.67587 41.0716 3.85316 46.4441H0V48H48V46.4441H30.2114ZM25.7311 30.2417C26.1105 31.1597 26.3226 32.1648 26.3226 33.2189C25.4686 33.2189 24.7742 32.5211 24.7742 31.663C24.7742 31.0259 25.169 30.4766 25.7311 30.2417ZM4.64516 36.3307C4.64516 33.7565 6.72852 31.663 9.29032 31.663C9.59845 31.663 9.90968 31.6941 10.2124 31.7556L10.9239 31.8995L11.1128 31.1955C12.0209 27.8059 15.0921 25.4394 18.5806 25.4394C21.2454 25.4394 23.5997 26.7993 24.9933 28.8655C23.9466 29.3673 23.2258 30.4393 23.2258 31.663C23.2258 33.3247 24.5319 34.6745 26.1646 34.7585C25.9858 35.6508 25.6545 36.5042 25.1814 37.2806L24.2663 34.8293L23.4132 35.8212C23.3172 35.9332 21.4483 38.1387 20.7848 40.7868C20.4085 40.2096 20.129 39.5009 20.129 38.6646V37.2106L18.9252 38.0173C18.8555 38.064 17.7948 38.7906 17.0323 40.0128C16.2697 38.7906 15.2083 38.064 15.1394 38.0173L13.9355 37.2106V38.6646C13.9355 39.6806 13.5236 40.5076 13.025 41.1416C12.5241 38.3651 10.7706 35.9807 10.6839 35.864L9.83613 34.7281L7.88439 39.9575C7.18839 38.7097 6.01006 37.9613 4.82245 37.5474C4.71561 37.1507 4.64516 36.7462 4.64516 36.3307ZM3.75484 38.8567C5.12052 39.1889 6.96774 40.0921 6.96774 42.5543V44.8882H8.51613V42.6959L10.2418 38.0718C10.8449 39.1617 11.5711 40.8078 11.6067 42.4314C11.4062 42.5629 11.2707 42.6353 11.2645 42.6384L11.6129 43.3323L11.959 44.0286C12.0797 43.9671 14.4968 42.7239 15.257 40.2119C15.7564 40.7876 16.2581 41.6029 16.2581 42.5543H17.8065C17.8065 41.6029 18.3089 40.7868 18.8075 40.2112C19.567 42.7232 21.9848 43.9671 22.1055 44.0278L22.8 42.6368C22.7915 42.6321 22.5043 42.4812 22.1234 42.1942C22.241 40.5838 23.1004 38.9742 23.7763 37.9458L25.5484 42.6959V44.8882H27.0968V42.5543C27.0968 40.0921 28.944 39.1881 30.3097 38.8567C29.6354 40.2975 28.7799 42.8344 28.6676 46.4441H5.3969C5.28465 42.8344 4.42916 40.2975 3.75484 38.8567Z" fill="#C62828"/>
<path d="M17.0325 31.663C18.3131 31.663 19.3551 30.6159 19.3551 29.3292H17.8067C17.8067 29.7578 17.4599 30.1071 17.0325 30.1071C16.6052 30.1071 16.2583 29.7578 16.2583 29.3292C16.2583 28.9005 16.6052 28.5512 17.0325 28.5512V26.9953C15.752 26.9953 14.71 28.0424 14.71 29.3292C14.71 30.6159 15.752 31.663 17.0325 31.663Z" fill="#C62828"/>
<path d="M13.9359 37.1087V35.5528C13.5085 35.5528 13.1617 35.2035 13.1617 34.7748C13.1617 34.3462 13.5085 33.9969 13.9359 33.9969C14.3632 33.9969 14.7101 34.3462 14.7101 34.7748H16.2584C16.2584 33.4881 15.2164 32.441 13.9359 32.441C12.6553 32.441 11.6133 33.4881 11.6133 34.7748C11.6133 36.0616 12.6553 37.1087 13.9359 37.1087Z" fill="#C62828"/>
<path d="M23.4482 23.3339L36.6078 10.1105L37.7025 11.2105L24.543 24.4339L23.4482 23.3339Z" fill="#C62828"/>
<path d="M41.7637 4.93346L42.8031 3.88898L43.8978 4.98901L42.8584 6.03348L41.7637 4.93346Z" fill="#C62828"/>
<path d="M37.3828 9.33355L38.4775 8.23352L39.5722 9.33355L38.4775 10.4336L37.3828 9.33355Z" fill="#C62828"/>
<path d="M39.5723 7.13321L40.667 6.03318L41.7617 7.13321L40.667 8.23323L39.5723 7.13321Z" fill="#C62828"/>
<path d="M27.3184 24.1119L40.4779 10.8885L41.5726 11.9885L28.4131 25.2119L27.3184 24.1119Z" fill="#C62828"/>
<path d="M43.4424 7.91116L44.5371 6.81113L45.6318 7.91116L44.5371 9.01119L43.4424 7.91116Z" fill="#C62828"/>
<path d="M45.6338 5.7122L46.6732 4.66773L47.7679 5.76776L46.7285 6.81223L45.6338 5.7122Z" fill="#C62828"/>
<path d="M41.2539 10.1115L42.3486 9.01147L43.4433 10.1115L42.3486 11.2115L41.2539 10.1115Z" fill="#C62828"/>
<path d="M22.6748 19.4443L35.8343 6.22094L36.929 7.32097L23.7695 20.5444L22.6748 19.4443Z" fill="#C62828"/>
<path d="M36.6094 5.44379L37.7041 4.34376L38.7988 5.44379L37.7041 6.54382L36.6094 5.44379Z" fill="#C62828"/>
<path d="M40.9893 1.04449L42.0287 2.23052e-05L43.1234 1.10005L42.084 2.14452L40.9893 1.04449Z" fill="#C62828"/>
<path d="M38.7979 3.24344L39.8926 2.14341L40.9873 3.24344L39.8926 4.34346L38.7979 3.24344Z" fill="#C62828"/>
<path d="M28.8662 29.5573L29.9609 28.4573L31.0556 29.5573L29.9609 30.6573L28.8662 29.5573Z" fill="#C62828"/>
<path d="M31.0547 27.3568L32.1494 26.2568L33.2441 27.3568L32.1494 28.4568L31.0547 27.3568Z" fill="#C62828"/>
<path d="M33.2461 25.1656L34.2855 24.1211L35.3802 25.2212L34.3408 26.2656L33.2461 25.1656Z" fill="#C62828"/>
<path d="M18.5381 15.821L19.6328 14.721L20.7275 15.821L19.6328 16.921L18.5381 15.821Z" fill="#C62828"/>
<path d="M14.1582 20.2211L15.2529 19.1211L16.3476 20.2211L15.2529 21.3211L14.1582 20.2211Z" fill="#C62828"/>
<path d="M16.3477 18.0205L17.4424 16.9205L18.5371 18.0205L17.4424 19.1206L16.3477 18.0205Z" fill="#C62828"/>
<path d="M20.7275 13.6219L21.8223 12.5218L22.917 13.6219L21.8223 14.7219L20.7275 13.6219Z" fill="#C62828"/>
<path d="M23.2257 8.32445H24.7741C24.7741 6.60829 26.163 5.21264 27.8708 5.21264V3.65674C26.163 3.65674 24.7741 2.26109 24.7741 0.544928H23.2257C23.2257 2.26109 21.8368 3.65674 20.1289 3.65674V5.21264C21.8368 5.21264 23.2257 6.60829 23.2257 8.32445ZM23.9999 3.11995C24.3444 3.64118 24.7896 4.0885 25.3083 4.43469C24.7896 4.78088 24.3444 5.2282 23.9999 5.74943C23.6554 5.2282 23.2102 4.78088 22.6915 4.43469C23.2102 4.0885 23.6554 3.64118 23.9999 3.11995Z" fill="#C62828"/>
<path d="M3.87119 24.6614H5.41958C5.41958 22.9453 6.80848 21.5496 8.51635 21.5496V19.9937C6.80848 19.9937 5.41958 18.5981 5.41958 16.8819H3.87119C3.87119 18.5981 2.48229 19.9937 0.774414 19.9937V21.5496C2.48229 21.5496 3.87119 22.9453 3.87119 24.6614ZM4.64538 19.4569C4.9899 19.9782 5.43506 20.4255 5.95377 20.7717C5.43506 21.1179 4.9899 21.5652 4.64538 22.0864C4.30087 21.5652 3.8557 21.1179 3.33699 20.7717C3.8557 20.4255 4.30087 19.9782 4.64538 19.4569Z" fill="#C62828"/>
<path d="M8.51572 12.9922H10.0641C10.0641 11.276 11.453 9.88035 13.1609 9.88035V8.32444C11.453 8.32444 10.0641 6.92879 10.0641 5.21263H8.51572C8.51572 6.92879 7.12682 8.32444 5.41895 8.32444V9.88035C7.12682 9.88035 8.51572 11.276 8.51572 12.9922ZM9.28991 7.78765C9.63443 8.30888 10.0796 8.7562 10.5983 9.10239C10.0796 9.44858 9.63443 9.89591 9.28991 10.4171C8.9454 9.89591 8.50024 9.44858 7.98153 9.10239C8.50024 8.7562 8.9454 8.30888 9.28991 7.78765Z" fill="#C62828"/>
<path d="M37.1612 25.4394H38.7096C38.7096 23.7232 40.0985 22.3276 41.8064 22.3276V20.7717C40.0985 20.7717 38.7096 19.376 38.7096 17.6599H37.1612C37.1612 19.376 35.7723 20.7717 34.0645 20.7717V22.3276C35.7723 22.3276 37.1612 23.7232 37.1612 25.4394ZM37.9354 20.2349C38.2799 20.7561 38.7251 21.2034 39.2438 21.5496C38.7251 21.8958 38.2799 22.3431 37.9354 22.8644C37.5909 22.3431 37.1457 21.8958 36.627 21.5496C37.1457 21.2034 37.5909 20.7561 37.9354 20.2349Z" fill="#C62828"/>
<path d="M42.5802 38.6646H44.1286C44.1286 36.9484 45.5175 35.5528 47.2253 35.5528V33.9969C45.5175 33.9969 44.1286 32.6012 44.1286 30.8851H42.5802C42.5802 32.6012 41.1913 33.9969 39.4834 33.9969V35.5528C41.1913 35.5528 42.5802 36.9484 42.5802 38.6646ZM43.3544 33.4601C43.6989 33.9813 44.144 34.4286 44.6628 34.7748C44.144 35.121 43.6989 35.5683 43.3544 36.0896C43.0099 35.5683 42.5647 35.121 42.046 34.7748C42.5647 34.4286 43.0099 33.9813 43.3544 33.4601Z" fill="#C62828"/>
</svg>
