<svg width="48" height="48" viewBox="0 0 48 48" fill="none" xmlns="http://www.w3.org/2000/svg">
<path fill-rule="evenodd" clip-rule="evenodd" d="M45.672 0H34.8083C33.5248 0 32.4803 1.04206 32.4803 2.32258V8.51613C32.4803 9.79665 33.5248 10.8387 34.8083 10.8387H36.8809L36.0785 15.5079L43.5668 10.8387H45.672C46.9555 10.8387 48 9.79665 48 8.51613V2.32258C48 1.04206 46.9555 0 45.672 0ZM46.448 8.51613C46.448 8.94271 46.0996 9.29032 45.672 9.29032H43.1214L38.1931 12.3631L38.7215 9.29032H34.8083C34.3807 9.29032 34.0323 8.94271 34.0323 8.51613V2.32258C34.0323 1.896 34.3807 1.54839 34.8083 1.54839H45.672C46.0996 1.54839 46.448 1.896 46.448 2.32258V8.51613ZM38.9885 41.8065L37.1921 36.429C36.5643 34.5515 34.9627 33.1657 33.0103 32.8111L27.8244 31.8697V31.4687C28.7269 30.9461 29.5122 30.247 30.1376 29.4194H31.7043C32.9878 29.4194 34.0323 28.3773 34.0323 27.0968V17.8065C34.0323 12.2571 29.5067 7.74198 23.9445 7.74198C18.3822 7.74198 13.8567 12.2571 13.8567 17.8065V23.2259C13.8567 24.7185 14.9206 25.9673 16.3313 26.2584C16.7666 28.4834 18.1603 30.3662 20.0646 31.4687V31.8697L14.8779 32.8111C12.9263 33.1657 11.3239 34.5515 10.6969 36.429L10.3865 37.3588L7.7435 34.7219C7.44087 34.4199 7.44087 33.9283 7.7435 33.6264L10.8086 30.5691L5.05549 24.8292L1.5915 28.2852C0.565653 29.3087 0.000737615 30.6697 0.000737615 32.1175C0.000737615 33.5652 0.565653 34.9255 1.5915 35.9489L12.0789 46.4122C13.1048 47.4357 14.4689 48 15.92 48C17.3711 48 18.7345 47.4357 19.7363 46.4354L23.5161 42.9802L22.3374 41.8065H38.9885ZM32.4803 27.0968C32.4803 27.5242 32.1319 27.871 31.7043 27.871H31.0517C31.2767 27.3593 31.4475 26.8197 31.5576 26.2584C31.8898 26.1895 32.1955 26.0579 32.4803 25.8922V27.0968ZM31.7043 24.559V21.8927C32.166 22.1613 32.4803 22.6553 32.4803 23.2259C32.4803 23.7964 32.166 24.2904 31.7043 24.559ZM16.1846 24.559C15.7229 24.2904 15.4087 23.7964 15.4087 23.2259C15.4087 22.6553 15.7229 22.1613 16.1846 21.8927V24.559ZM16.1846 19.3549V20.239C15.9084 20.311 15.6492 20.4194 15.4087 20.5595V17.8065C15.4087 13.111 19.2381 9.29037 23.9445 9.29037C28.6508 9.29037 32.4803 13.111 32.4803 17.8065V20.5595C32.2397 20.4194 31.9806 20.3102 31.7043 20.239V19.3549H30.9283C28.6337 19.3549 26.4765 18.463 24.8532 16.8442L23.9445 15.9376L23.0358 16.8442C21.4124 18.463 19.2552 19.3549 16.9606 19.3549H16.1846ZM17.7366 24.7742V20.8739C20.0669 20.6989 22.2396 19.7397 23.9445 18.1224C25.6493 19.7397 27.8221 20.6997 30.1523 20.8739V24.7742C30.1523 25.903 29.8435 26.959 29.3127 27.871H23.9445V29.4194H28.037C26.9429 30.3802 25.5127 30.9678 23.9445 30.9678C20.5216 30.9678 17.7366 28.1892 17.7366 24.7742ZM26.2724 32.1593V32.1957L23.9445 34.5182L21.6165 32.1957V32.1593C22.3522 32.39 23.1336 32.5162 23.9445 32.5162C24.7554 32.5162 25.5368 32.39 26.2724 32.1593ZM12.1682 36.9182C12.6159 35.5773 13.7605 34.5871 15.1549 34.3332L20.579 33.35L23.9445 36.7077L27.3091 33.3508L32.7325 34.334C34.1269 34.5879 35.2715 35.5773 35.7192 36.919L36.8359 40.2581H20.7854L17.763 37.2426L14.4045 40.2736C14.112 40.567 13.6006 40.567 13.3073 40.2736L11.6126 38.5828L12.1682 36.9182ZM5.05472 27.0186L8.61338 30.5691L7.77066 31.4099L4.212 27.8594L5.05472 27.0186ZM18.6616 45.319C17.9291 46.0483 16.9544 46.4517 15.9185 46.4517C14.8825 46.4517 13.9079 46.0483 13.1746 45.3175L2.68719 34.855C1.95466 34.1242 1.55115 33.1518 1.55115 32.1182C1.55115 31.0839 1.95466 30.1115 2.68719 29.3807L3.11398 28.9549L6.67264 32.5053L6.64471 32.5332C5.73758 33.439 5.73758 34.9123 6.64471 35.8181L12.2093 41.3699C12.6493 41.808 13.2336 42.0504 13.8559 42.0504C14.4783 42.0504 15.0626 41.8088 15.4738 41.3969L15.532 41.3451L19.107 44.9118L18.6616 45.319ZM20.2523 43.8635L16.6852 40.3046L17.7102 39.3802L21.2712 42.9329L20.2523 43.8635ZM35.5843 3.09669H44.8961V4.64508H35.5843V3.09669ZM41.7922 6.19355H35.5843V7.74194H41.7922V6.19355ZM43.3441 6.19355H44.896V7.74194H43.3441V6.19355ZM23.9445 2.32265C13.8055 2.32265 5.07183 9.31981 2.8013 19.0801L1.33081 16.6344L0 17.431L2.72758 21.9655L7.27252 19.2442L6.47403 17.9165L4.37111 19.1753C6.57025 10.2465 14.618 3.87103 23.9445 3.87103C25.983 3.87103 27.9944 4.17297 29.9227 4.7691L30.3821 3.29039C28.3048 2.64781 26.139 2.32265 23.9445 2.32265ZM43.0779 14.421L47.6229 17.1423L46.8244 18.47L44.5438 17.1051C45.2895 19.3193 45.672 21.6318 45.672 24.0001C45.672 28.958 43.9509 33.806 40.8252 37.6491L39.6201 36.6736C42.5215 33.1054 44.1201 28.6042 44.1201 24.0001C44.1201 21.7634 43.7546 19.581 43.0399 17.4945L41.6819 19.7528L40.3511 18.9562L43.0779 14.421Z" fill="#C62828"/>
</svg>
