<svg width="39" height="48" viewBox="0 0 39 48" fill="none" xmlns="http://www.w3.org/2000/svg">
<path d="M39 24C39 19.779 37.6281 15.8732 35.3091 12.6891L38.8042 9.22001L34.3916 4.84022L30.8965 8.30935C28.286 6.43586 25.1931 5.18952 21.84 4.78919V1.54839H23.4V0H15.6V1.54839H17.16V4.78919C13.8069 5.18952 10.714 6.43586 8.10431 8.30859L4.60916 4.83947L0.196523 9.21925L3.69167 12.6884C1.37186 15.8732 0 19.779 0 24C0 31.4803 4.37569 38.3025 11.1721 41.4953C12.0862 45.2215 15.4682 48 19.5 48C21.474 48 23.4023 47.3165 24.9295 46.0762L23.9404 44.8783C22.6924 45.8925 21.1145 46.4516 19.5 46.4516C15.6289 46.4516 12.48 43.3261 12.48 39.4839C12.48 37.8814 13.0433 36.3153 14.0651 35.0765L12.8582 34.0948C12.2873 34.7877 11.8398 35.5664 11.5153 36.3916C10.8278 35.955 10.1884 35.4628 9.59156 34.9294L11.2266 33.3066L10.1236 32.2118L8.48479 33.8385C6.24381 31.3635 4.88681 28.173 4.70666 24.7742H7.02V23.2258H4.71961C4.90318 19.7544 6.29865 16.604 8.5004 14.177L10.1244 15.7889L11.2274 14.6942L9.60337 13.0823C12.0485 10.8962 15.2226 9.51184 18.72 9.32964V11.6129H20.28V9.32964C23.7774 9.51184 26.9515 10.8969 29.3966 13.0823L27.7726 14.6942L28.8756 15.7889L30.4996 14.177C32.7021 16.604 34.0968 19.7544 34.2804 23.2258H31.98V24.7742H34.2933C34.1132 28.173 32.7562 31.3635 30.5152 33.8385L28.8764 32.2118L27.7734 33.3066L29.4084 34.9294C28.8116 35.4628 28.1729 35.955 27.4855 36.3916C26.2351 33.2223 23.1307 30.9677 19.5 30.9677C17.526 30.9677 15.5977 31.6512 14.0705 32.8915L15.0596 34.0895C16.3076 33.0752 17.8855 32.5161 19.5 32.5161C23.3711 32.5161 26.52 35.6416 26.52 39.4839C26.52 41.0863 25.9567 42.6525 24.9349 43.8913L26.1418 44.873C26.9576 43.8837 27.5293 42.7239 27.8313 41.4931C34.6258 38.2988 39 31.4811 39 24ZM34.3916 7.02898L36.5983 9.21925L34.3379 11.4628C33.6615 10.6762 32.9238 9.94393 32.1312 9.27256L34.3916 7.02898ZM18.72 1.54839H20.28V4.66444C20.021 4.65461 19.7613 4.64516 19.5 4.64516C19.2387 4.64516 18.979 4.65461 18.72 4.66444V1.54839ZM2.4017 9.21925L4.6084 7.02898L6.8688 9.27256C6.07623 9.94393 5.33851 10.6762 4.6621 11.4628L2.4017 9.21925ZM28.0731 39.6442C28.0739 39.5909 28.08 39.5372 28.08 39.4839C28.08 38.9535 28.0248 38.4356 27.9303 37.9325C32.8449 34.996 35.88 29.715 35.88 24C35.88 15.0355 28.5317 7.74194 19.5 7.74194C10.4683 7.74194 3.12 15.0355 3.12 24C3.12 29.7157 6.15431 34.9952 11.0689 37.9302C10.9729 38.4409 10.92 38.9607 10.92 39.4839C10.92 39.5379 10.9269 39.5909 10.9276 39.6449C5.19644 36.5466 1.56 30.5436 1.56 24C1.56 14.1808 9.60718 6.19355 19.5 6.19355C29.3928 6.19355 37.44 14.1808 37.44 24C37.44 30.5451 33.8043 36.5444 28.0731 39.6442Z" fill="#C62828"/>
<path d="M18.7199 13.1614V21.82C17.8142 22.1406 17.1599 22.9923 17.1599 24.0001C17.1599 25.2805 18.2099 26.3227 19.4999 26.3227C20.5153 26.3227 21.3734 25.6732 21.6963 24.7743H27.2999V23.2259H21.6963C21.461 22.57 20.9407 22.0536 20.2799 21.82V13.1614H18.7199ZM19.4999 24.7743C19.0695 24.7743 18.7199 24.4273 18.7199 24.0001C18.7199 23.5729 19.0695 23.2259 19.4999 23.2259C19.9303 23.2259 20.2799 23.5729 20.2799 24.0001C20.2799 24.4273 19.9303 24.7743 19.4999 24.7743Z" fill="#C62828"/>
<path d="M20 41C21.655 41 23 39.655 23 38C23 36.345 21.655 35 20 35H18.5H17V39.5H16V41H17V41.5H16V43H17V44H18.5V43H20.5V41.5H18.5V41H20ZM18.5 36.5H20C20.83 36.5 21.5 37.17 21.5 38C21.5 38.83 20.83 39.5 20 39.5H18.5V36.5Z" fill="#C62828"/>
</svg>
