<svg width="48" height="48" viewBox="0 0 48 48" fill="none" xmlns="http://www.w3.org/2000/svg">
<path fill-rule="evenodd" clip-rule="evenodd" d="M18.5806 0H46.4516C47.3055 0 48 0.694452 48 1.54839V26.3226C48 27.1765 47.3055 27.871 46.4516 27.871H44.9032V44.9032H41.8064V48H0V24.7742H4.64516V20.129C4.64516 18.4212 6.03406 17.0323 7.74194 17.0323H10.8387V21.6774H17.0323V1.54839C17.0323 0.694452 17.7267 0 18.5806 0ZM34.8387 1.54839H30.1935V5.09884L30.9677 4.32465L32.5161 5.87303L34.0645 4.32465L34.8387 5.09884V1.54839ZM28.6452 1.54839H18.5806V21.6774H34.0645V12.3871H46.4516V1.54839H36.3871V8.83664L34.0645 6.51406L32.5161 8.06245L30.9677 6.51406L28.6452 8.83664V1.54839ZM9.29032 18.5806H7.74194C6.888 18.5806 6.19355 19.2751 6.19355 20.129C6.19355 20.983 6.888 21.6774 7.74194 21.6774H9.29032V18.5806ZM1.54839 26.3226V46.4516H40.2581V26.3226H1.54839ZM41.8064 43.3548H43.3548V23.2258H7.74194C7.17523 23.2258 6.6511 23.0617 6.19355 22.7954V24.7742H41.8064V43.3548ZM44.9032 21.6774V26.3226H46.4516V13.9355H35.6129V21.6774H44.9032ZM38.7097 27.871V44.9032H3.09677V27.871H38.7097ZM37.1613 41.1422C36.0782 41.4232 35.2305 42.2717 34.9486 43.3548H37.1613V41.1422ZM34.9486 29.4194C35.2297 30.5025 36.0782 31.3502 37.1613 31.632V29.4194H34.9486ZM37.1613 33.2206C35.2204 32.8924 33.6875 31.3603 33.36 29.4194H25.7845C27.9786 30.9615 29.4194 33.5071 29.4194 36.3871C29.4194 39.2671 27.9786 41.8126 25.7837 43.3556H33.36C33.6883 41.4147 35.2204 39.8818 37.1613 39.5543V33.2206ZM13.9355 36.3871C13.9355 40.2294 17.0609 43.3548 20.9032 43.3548C24.7455 43.3548 27.871 40.2294 27.871 36.3871C27.871 32.5448 24.7455 29.4194 20.9032 29.4194C17.0609 29.4194 13.9355 32.5448 13.9355 36.3871ZM4.64516 31.632C5.72826 31.351 6.57677 30.5025 6.85781 29.4194H4.64516V31.632ZM6.85781 43.3548C6.57677 42.2717 5.72826 41.4232 4.64516 41.1422V43.3548H6.85781ZM4.64516 39.5536C6.58606 39.8818 8.11897 41.4139 8.44645 43.3548H16.0219C13.8279 41.8126 12.3871 39.2671 12.3871 36.3871C12.3871 33.5071 13.8279 30.9615 16.0227 29.4194H8.44645C8.11819 31.3603 6.58606 32.8932 4.64516 33.2206V39.5536ZM37.1613 18.5806H44.9032V20.129H37.1613V18.5806ZM38.7097 15.4839H37.1613V17.0323H38.7097V15.4839ZM40.2581 15.4839H44.9032V17.0323H40.2581V15.4839ZM25 35C25 36.655 23.655 38 22 38H20.5V38.5H22.5V40H20.5V41H19V40H18V38.5H19V38H18V36.5H19V32H20.5H22C23.655 32 25 33.345 25 35ZM22 33.5H20.5V36.5H22C22.83 36.5 23.5 35.83 23.5 35C23.5 34.17 22.83 33.5 22 33.5Z" fill="#C62828"/>
</svg>
