<svg width="47" height="48" viewBox="0 0 47 48" fill="none" xmlns="http://www.w3.org/2000/svg">
<path d="M9.60547 48H37.3951V43.3548H9.60547V48ZM11.1493 44.9032H35.8512V46.4516H11.1493V44.9032Z" fill="#C62828"/>
<path d="M15.1655 18.8865L15.1524 18.9051L15.1701 18.9174L16.5418 27.8617L14.0886 41.8065H16.8722L23.5001 35.1593L30.1279 41.8065H32.9115L30.4583 27.8617L31.83 18.9174L31.8478 18.9051L31.8346 18.8865L32.4753 14.7097H42.0265V11.9272L32.9601 6.96775H29.4432L31.9913 2.36903V5.41936H33.5352V0H31.5374L27.6778 6.96775H19.3224L15.4627 0H13.4649V5.41936H15.0088V2.36903L17.5569 6.96775H14.04L4.97363 11.9272V14.7097H14.5248L15.1655 18.8865ZM33.3592 8.94969L40.4826 12.847V13.1613H32.7131L33.3592 8.94969ZM16.45 17.0818L16.0864 14.7097H18.1397L16.45 17.0818ZM23.5001 22.8116L17.2458 18.6302L20.0379 14.7097H26.963L29.755 18.6294L23.5001 22.8116ZM30.0576 20.287L29.0966 26.5533L24.8919 23.7414L30.0576 20.287ZM22.1083 23.7422L17.9035 26.5541L16.9425 20.2878L22.1083 23.7422ZM16.2331 40.2581H15.9289L17.8271 29.4697L22.4085 34.0645L16.2331 40.2581ZM18.5365 27.9918L23.5001 24.672L28.4636 27.991L23.5001 32.9698L18.5365 27.9918ZM31.0712 40.2581H30.7671L24.5916 34.0645L29.173 29.4697L31.0712 40.2581ZM30.5494 17.0818L28.8596 14.7097H30.9129L30.5494 17.0818ZM31.864 8.51614L31.1515 13.1613H15.8494L15.1369 8.51614H31.864ZM6.5175 13.1613V12.847L13.6409 8.94969L14.287 13.1613H6.5175Z" fill="#C62828"/>
<path d="M6.5175 16.2581H4.97363V17.8065H6.5175V16.2581Z" fill="#C62828"/>
<path d="M9.60539 16.2581H8.06152V17.8065H9.60539V16.2581Z" fill="#C62828"/>
<path d="M42.0263 16.2581H40.4824V17.8065H42.0263V16.2581Z" fill="#C62828"/>
<path d="M38.9384 16.2581H37.3945V17.8065H38.9384V16.2581Z" fill="#C62828"/>
<path d="M39.052 27.7642L40.9911 23.2259H42.0263V21.6775H39.9737L37.2812 27.9779L39.6109 31.0933L37.0527 37.9356H40.4824V36.3872H39.2805L41.354 30.8424L39.052 27.7642Z" fill="#C62828"/>
<path d="M46.9999 19.3548H43.5702V20.9032H44.7721L42.6987 26.448L45.0006 29.5262L43.0615 34.0645H42.0264V35.6129H44.0789L46.7714 29.3125L44.4418 26.1971L46.9999 19.3548Z" fill="#C62828"/>
<path d="M1.99931 27.7642L3.93841 23.2259H4.97357V21.6775H2.921L0.228493 27.9779L2.55819 31.0933L0 37.9356H3.42971V36.3872H2.2278L4.30122 30.8424L1.99931 27.7642Z" fill="#C62828"/>
<path d="M7.38902 26.1971L9.94721 19.3548H6.5175V20.9032H7.7194L5.64599 26.448L7.9479 29.5262L6.0088 34.0645H4.97363V35.6129H7.02621L9.71871 29.3125L7.38902 26.1971Z" fill="#C62828"/>
</svg>
