<svg width="48" height="48" viewBox="0 0 48 48" fill="none" xmlns="http://www.w3.org/2000/svg">
<path d="M19.3547 6.19354C10.3904 6.19354 3.09668 13.4864 3.09668 22.4516C3.09668 31.4168 10.3904 38.7097 19.3547 38.7097C28.3191 38.7097 35.6128 31.4168 35.6128 22.4516C35.6128 13.4864 28.3191 6.19354 19.3547 6.19354ZM34.0644 22.4516C34.0644 24.8524 33.4745 27.1138 32.4502 29.1182L31.1124 28.3455C32.0236 26.5401 32.516 24.5388 32.516 22.4516C32.516 20.3326 32.0004 18.3352 31.107 16.5608L32.4502 15.785C33.4745 17.7894 34.0644 20.0508 34.0644 22.4516ZM31.6768 14.4433L30.3375 15.2168C28.1147 11.8537 24.3916 9.57909 20.1289 9.3298V7.78141C24.963 8.03457 29.1831 10.6196 31.6768 14.4433ZM18.5806 7.78141V9.3298C14.3178 9.57986 10.5947 11.8544 8.37203 15.2168L7.03268 14.4433C9.52636 10.6196 13.7465 8.03457 18.5806 7.78141ZM6.25926 15.785L7.60249 16.5608C6.70907 18.3352 6.19345 20.3326 6.19345 22.4516C6.19345 24.5388 6.68584 26.5401 7.59707 28.3455L6.25926 29.1182C5.235 27.1138 4.64507 24.8524 4.64507 22.4516C4.64507 20.0508 5.235 17.7894 6.25926 15.785ZM7.03268 30.4599L8.36894 29.6888C8.85823 30.425 9.42262 31.1187 10.0644 31.7582V33.8439C8.88687 32.8815 7.86649 31.7373 7.03268 30.4599ZM11.6128 34.9355V31.0986L11.3713 30.8694C9.03087 28.649 7.74184 25.6599 7.74184 22.4516C7.74184 16.0483 12.9514 10.8387 19.3547 10.8387C25.7581 10.8387 30.9676 16.0483 30.9676 22.4516C30.9676 25.6599 29.6786 28.649 27.3382 30.8694L27.0967 31.0986V34.9355C24.8445 36.3375 22.1968 37.1613 19.3547 37.1613C16.5127 37.1613 13.8649 36.3375 11.6128 34.9355ZM28.6451 33.8439V31.7582C29.2869 31.1187 29.852 30.4243 30.3405 29.6888L31.6768 30.4599C30.843 31.7373 29.8226 32.8815 28.6451 33.8439Z" fill="#C62828"/>
<path d="M38.7101 32.5161V34.0645C41.272 34.0645 43.3553 36.1479 43.3553 38.7097C43.3553 41.2715 41.272 43.3548 38.7101 43.3548C36.1483 43.3548 34.065 41.2715 34.065 38.7097H32.5166C32.5166 42.1246 35.2952 44.9032 38.7101 44.9032C42.1251 44.9032 44.9037 42.1246 44.9037 38.7097C44.9037 35.2947 42.1251 32.5161 38.7101 32.5161Z" fill="#C62828"/>
<path d="M19.3544 27.871C17.2199 27.871 15.4834 29.6075 15.4834 31.7419C15.4834 33.8764 17.2199 35.6129 19.3544 35.6129C21.4888 35.6129 23.2253 33.8764 23.2253 31.7419C23.2253 29.6075 21.4888 27.871 19.3544 27.871ZM20.1286 33.9221V30.9677H18.5802V33.9221C17.6813 33.6016 17.0318 32.7499 17.0318 31.7419C17.0318 30.4614 18.0738 29.4194 19.3544 29.4194C20.6349 29.4194 21.6769 30.4614 21.6769 31.7419C21.6769 32.7499 21.0274 33.6016 20.1286 33.9221Z" fill="#C62828"/>
<path d="M17.8063 21.6774H15.03L17.1258 19.5817C17.5647 19.1435 17.8063 18.5597 17.8063 17.9388V17.8065C17.8063 16.5259 16.7642 15.4839 15.4837 15.4839C14.2032 15.4839 13.1611 16.5259 13.1611 17.8065V18.5806H14.7095V17.8065C14.7095 17.3799 15.0564 17.0323 15.4837 17.0323C15.9111 17.0323 16.2579 17.3799 16.2579 17.8065V17.9388C16.2579 18.1455 16.1774 18.3406 16.0311 18.487L13.1611 21.3569V23.2258H17.8063V21.6774Z" fill="#C62828"/>
<path d="M21.6778 15.4839C19.97 15.4839 18.5811 17.2204 18.5811 19.3548C18.5811 21.4893 19.97 23.2258 21.6778 23.2258C23.3857 23.2258 24.7746 21.4893 24.7746 19.3548C24.7746 17.2204 23.3857 15.4839 21.6778 15.4839ZM21.6778 21.6774C20.8386 21.6774 20.1294 20.6137 20.1294 19.3548C20.1294 18.096 20.8386 17.0323 21.6778 17.0323C22.5171 17.0323 23.2262 18.096 23.2262 19.3548C23.2262 20.6137 22.5171 21.6774 21.6778 21.6774Z" fill="#C62828"/>
<path d="M43.3548 30.6712V2.32258C43.3548 1.04206 42.3128 0 41.0323 0H36.3871C35.1066 0 34.0645 1.04206 34.0645 2.32258V9.89342C30.5117 5.73832 25.2379 3.09677 19.3548 3.09677C8.68258 3.09677 0 11.7794 0 22.4516C0 33.1239 8.68258 41.8064 19.3548 41.8064C23.0446 41.8064 26.4952 40.7675 29.4325 38.969C29.5719 43.9711 33.6743 48 38.7097 48C43.8325 48 48 43.8325 48 38.7097C48 35.3698 46.2325 32.3319 43.3548 30.6712ZM1.54839 22.4516C1.54839 12.6333 9.53574 4.64516 19.3548 4.64516C29.1739 4.64516 37.1613 12.6333 37.1613 22.4516C37.1613 32.2699 29.1739 40.2581 19.3548 40.2581C9.53574 40.2581 1.54839 32.2699 1.54839 22.4516ZM38.7097 46.4516C34.4408 46.4516 30.9677 42.9786 30.9677 38.7097C30.9677 38.4302 30.9987 38.153 31.0289 37.8774C35.6911 34.3401 38.7097 28.7427 38.7097 22.4516C38.7097 18.5907 37.5685 14.993 35.6129 11.9698V2.32258C35.6129 1.896 35.9597 1.54839 36.3871 1.54839H41.0323C41.4596 1.54839 41.8064 1.896 41.8064 2.32258V3.09677H40.2581V4.64516H41.8064V6.19355H38.7097V7.74194H41.8064V9.29032H40.2581V10.8387H41.8064V12.3871H38.7097V13.9355H41.8064V15.4839H40.2581V17.0323H41.8064V18.5806H38.7097V20.129H41.8064V21.6774H40.2581V23.2258H41.8064V24.7742H38.7097V26.3226H41.8064V27.871H40.2581V29.4194H41.8064V31.6041L42.2276 31.8201C44.8328 33.1533 46.4516 35.7933 46.4516 38.7097C46.4516 42.9786 42.9786 46.4516 38.7097 46.4516Z" fill="#C62828"/>
</svg>
