<svg width="48" height="48" viewBox="0 0 48 48" fill="none" xmlns="http://www.w3.org/2000/svg">
<path d="M6.0013 40.6155L4.77148 41.5407C5.2529 42.1806 5.8203 42.7473 6.45868 43.2272L7.38245 41.9966C6.86011 41.6061 6.39484 41.1408 6.0013 40.6155Z" fill="#C62828"/>
<path d="M3.11621 37.3792L3.17629 37.7652C3.33701 38.8013 3.68549 39.7863 4.21234 40.6954L5.5428 39.9241C5.17667 39.2917 4.91606 38.615 4.7651 37.9061L7.97051 34.7007L6.88339 33.6132L3.11621 37.3792Z" fill="#C62828"/>
<path d="M45.3744 35.6951H33.8385C33.4149 35.6951 33.0695 35.3504 33.0695 34.926V26.7848L42.2982 17.5561L43.8363 19.0943L48 14.9305L33.0695 0L28.9057 4.16372L30.4439 5.70184L0 36.1457V36.4641C0 42.825 5.17499 48 11.5359 48H11.8543L13.3924 46.4619H41.5291C42.801 46.4619 43.8363 45.4266 43.8363 44.1547C43.8363 42.8825 42.801 41.8475 41.5291 41.8475H38.4529C38.0293 41.8475 37.6838 41.5028 37.6838 41.0785C37.6838 40.6538 38.0293 40.3094 38.4529 40.3094H45.3744C46.6463 40.3094 47.6816 39.2741 47.6816 38.0023C47.6816 36.73 46.6463 35.6951 45.3744 35.6951ZM33.0695 2.17499L45.825 14.9305L43.8363 16.9193L31.0807 4.16372L33.0695 2.17499ZM41.2107 16.4686L32.1491 25.5302L28.4551 23.6838V27.6384L24.7559 26.1581L24.0124 31.3639L19.7326 28.7957L20.113 31.0807H7.23995L13.074 25.2467L15.6065 27.7792L16.694 26.6917L14.1615 24.1592L15.3811 22.9395L19.4517 27.0101L20.5392 25.9226L16.4686 21.852L17.6883 20.6324L20.2208 23.1649L21.3083 22.0774L18.7758 19.5449L19.9955 18.3252L24.0661 22.3958L25.1536 21.3083L21.083 17.2377L22.3027 16.018L24.8351 18.5505L25.9226 17.463L23.3902 14.9305L24.6098 13.7109L28.6804 17.7815L29.7679 16.694L25.6973 12.6234L26.917 11.4037L29.4495 13.9362L30.537 12.8487L28.0045 10.3162L29.2242 9.09651L33.2948 13.1671L34.3823 12.0796L30.3117 8.00901L31.5314 6.78934L41.2107 16.4686ZM11.2219 46.4574C5.95869 46.2933 1.7056 42.0421 1.54262 36.7777L5.70184 32.6189H20.3691L20.6485 34.2937L15.3188 35.1821L18.908 38.7713L11.2219 46.4574ZM45.3744 38.7713H38.4529C37.181 38.7713 36.1457 39.8062 36.1457 41.0785C36.1457 42.3504 37.181 43.3857 38.4529 43.3857H41.5291C41.9527 43.3857 42.2982 43.73 42.2982 44.1547C42.2982 44.579 41.9527 44.9238 41.5291 44.9238H14.9305L21.083 38.7713L18.5197 36.208L22.4187 35.558L21.7965 31.8273L25.2073 33.8738L26.0019 28.3128L29.9932 29.9095V26.1735L31.5314 26.9425V34.926C31.5314 36.1979 32.5667 37.2332 33.8385 37.2332H45.3744C45.798 37.2332 46.1434 37.5775 46.1434 38.0023C46.1434 38.4266 45.798 38.7713 45.3744 38.7713Z" fill="#C62828"/>
<path d="M24.6099 38.7714C23.338 38.7714 22.3027 39.8063 22.3027 41.0786C22.3027 42.3504 23.338 43.3857 24.6099 43.3857V41.8476C24.1863 41.8476 23.8408 41.5029 23.8408 41.0786C23.8408 40.6538 24.1863 40.3095 24.6099 40.3095C25.0335 40.3095 25.379 40.6538 25.379 41.0786H26.9171C26.9171 39.8063 25.8818 38.7714 24.6099 38.7714Z" fill="#C62828"/>
<path d="M34.6074 31.8498C34.6074 33.1217 35.6427 34.157 36.9146 34.157C38.1865 34.157 39.2218 33.1217 39.2218 31.8498C39.2218 30.5776 38.1865 29.5427 36.9146 29.5427C35.6427 29.5427 34.6074 30.5776 34.6074 31.8498ZM37.6837 31.8498C37.6837 32.2742 37.3382 32.6189 36.9146 32.6189C36.491 32.6189 36.1455 32.2742 36.1455 31.8498C36.1455 31.4251 36.491 31.0808 36.9146 31.0808C37.3382 31.0808 37.6837 31.4251 37.6837 31.8498Z" fill="#C62828"/>
<path d="M42.2979 24.9283C42.2979 23.656 41.2626 22.6211 39.9908 22.6211C38.7189 22.6211 37.6836 23.656 37.6836 24.9283C37.6836 26.2002 38.7189 27.2355 39.9908 27.2355C41.2626 27.2355 42.2979 26.2002 42.2979 24.9283ZM39.2217 24.9283C39.2217 24.5036 39.5672 24.1592 39.9908 24.1592C40.4143 24.1592 40.7598 24.5036 40.7598 24.9283C40.7598 25.3526 40.4143 25.6974 39.9908 25.6974C39.5672 25.6974 39.2217 25.3526 39.2217 24.9283Z" fill="#C62828"/>
<path d="M45.3746 26.4664C44.1027 26.4664 43.0674 27.5013 43.0674 28.7736C43.0674 30.0455 44.1027 31.0808 45.3746 31.0808C46.6464 31.0808 47.6817 30.0455 47.6817 28.7736C47.6817 27.5013 46.6464 26.4664 45.3746 26.4664ZM45.3746 29.5426C44.951 29.5426 44.6055 29.1979 44.6055 28.7736C44.6055 28.3489 44.951 28.0045 45.3746 28.0045C45.7981 28.0045 46.1436 28.3489 46.1436 28.7736C46.1436 29.1979 45.7981 29.5426 45.3746 29.5426Z" fill="#C62828"/>
<path d="M12.3428 41.49L13.4303 40.4021L14.5181 41.49L13.4303 42.5775L12.3428 41.49Z" fill="#C62828"/>
<path d="M14.5186 39.3147L15.6061 38.2272L16.6935 39.3147L15.6061 40.4026L14.5186 39.3147Z" fill="#C62828"/>
<path d="M10.2227 43.6109L11.2553 42.5783L12.3428 43.6658L11.3102 44.6984L10.2227 43.6109Z" fill="#C62828"/>
</svg>
