<svg width="48" height="48" viewBox="0 0 48 48" fill="none" xmlns="http://www.w3.org/2000/svg">
<path fill-rule="evenodd" clip-rule="evenodd" d="M34.8387 27.871V37.3037C35.7375 37.6243 36.3871 38.4759 36.3871 39.4839C36.3871 40.5321 35.6849 41.4101 34.7295 41.6981C35.273 42.3646 35.6129 43.2039 35.6129 44.129C35.6129 46.2635 33.8764 48 31.7419 48C29.6075 48 27.871 46.2635 27.871 44.129C27.871 43.2542 28.1737 42.4552 28.6645 41.8064H20.8831C21.3747 42.4552 21.6774 43.2542 21.6774 44.129C21.6774 46.2635 19.9409 48 17.8065 48C15.672 48 13.9355 46.2635 13.9355 44.129C13.9355 42.912 14.5115 41.8374 15.3925 41.1275C14.9714 40.7063 14.7097 40.1249 14.7097 39.4839V24.6503L10.8387 21.3321V44.9032C10.8387 46.6111 9.44981 48 7.74194 48C6.8129 48 5.98761 47.5804 5.41935 46.9301C4.8511 47.5804 4.02581 48 3.09677 48C1.3889 48 0 46.6111 0 44.9032V16.7071C0 14.4774 1.25032 12.535 3.08516 11.5425C1.24335 10.4679 0 8.4751 0 6.19355C0 2.77858 2.77858 0 6.19355 0C8.07484 0 9.84232 0.866323 11.0145 2.32258H14.7097C15.9902 2.32258 17.0323 3.36465 17.0323 4.64516C17.0323 5.92568 15.9902 6.96774 14.7097 6.96774H12.3337C12.0712 9.05419 10.769 10.8178 8.96129 11.7259C9.20826 11.8792 9.44671 12.0472 9.67045 12.2377L20.2606 21.281C21.151 22.5383 21.1099 24.1301 20.1577 25.241C19.9293 25.5074 19.6514 25.7148 19.3548 25.8875V37.1613H20.9032V27.871H34.8387ZM28.6452 29.4194H27.0968V30.9677H28.6452V29.4194ZM25.5484 29.4194H22.4516V37.1613H33.2903V29.4194H30.1935V32.5161H25.5484V29.4194ZM14.7097 5.41935C15.1363 5.41935 15.4839 5.07174 15.4839 4.64516C15.4839 4.21858 15.1363 3.87097 14.7097 3.87097H10.4299C9.54426 3.87097 8.74839 4.36258 8.35277 5.15458L8.22039 5.41935H14.7097ZM9.08671 2.56955C8.27226 1.92077 7.25806 1.54839 6.19355 1.54839C3.89652 1.54839 1.9889 3.22606 1.61806 5.41935H6.48929L6.96774 4.46245C7.41755 3.56284 8.1809 2.90323 9.08671 2.56955ZM6.19355 10.8387C8.49135 10.8387 10.399 9.16103 10.769 6.96774H1.61806C1.9889 9.16103 3.89574 10.8387 6.19355 10.8387ZM7.74194 46.4516C8.59587 46.4516 9.29032 45.7572 9.29032 44.9032V20.0052L4.95252 16.2875L5.96052 15.1115L16.7992 24.4018C17.4225 24.9375 18.4475 24.8586 18.9825 24.2338C19.4539 23.6834 19.4764 22.913 19.0475 22.2503L8.66787 13.4175C7.88671 12.7533 6.89264 12.3871 5.86839 12.3871C3.48619 12.3871 1.54839 14.3249 1.54839 16.7071V44.9032C1.54839 45.7572 2.24284 46.4516 3.09677 46.4516C3.95071 46.4516 4.64516 45.7572 4.64516 44.9032V42.5806V31.0769C4.64516 29.7794 5.29006 28.5755 6.36929 27.8555L7.31303 27.2276L8.17161 28.5159L7.22787 29.1445C6.58065 29.5765 6.19355 30.2988 6.19355 31.0769V42.5806V44.9032C6.19355 45.7572 6.888 46.4516 7.74194 46.4516ZM17.8065 46.4516C19.087 46.4516 20.129 45.4095 20.129 44.129C20.129 42.8485 19.087 41.8064 17.8065 41.8064C16.5259 41.8064 15.4839 42.8485 15.4839 44.129C15.4839 45.4095 16.5259 46.4516 17.8065 46.4516ZM29.4194 44.129C29.4194 45.4095 30.4614 46.4516 31.7419 46.4516C33.0224 46.4516 34.0645 45.4095 34.0645 44.129C34.0645 42.8485 33.0224 41.8064 31.7419 41.8064C30.4614 41.8064 29.4194 42.8485 29.4194 44.129ZM17.0323 40.2581H34.0645C34.4911 40.2581 34.8387 39.9104 34.8387 39.4839C34.8387 39.0573 34.4911 38.7097 34.0645 38.7097H17.8065V26.3226C17.2591 26.3226 16.7257 26.1755 16.2581 25.9053V39.4839C16.2581 39.9104 16.6057 40.2581 17.0323 40.2581ZM48 6.19355C48 8.52387 46.7048 10.5561 44.7979 11.6129C46.7048 12.6705 48 14.7027 48 17.0338V44.9032C48 46.6111 46.6111 48 44.9032 48C43.9742 48 43.1489 47.5804 42.5807 46.9301C42.0124 47.5804 41.1871 48 40.2581 48C38.5502 48 37.1613 46.6111 37.1613 44.9032V18.9848L30.5017 21.4823C30.1517 21.6124 29.7886 21.6774 29.4194 21.6774C28.3092 21.6774 27.2896 21.0712 26.7414 20.129H23.2258C21.9453 20.129 20.9032 19.087 20.9032 17.8065V11.6129C20.9032 10.3324 21.9453 9.29032 23.2258 9.29032H32.5161C33.7966 9.29032 34.8387 10.3324 34.8387 11.6129V13.2403L38.9675 11.6919C37.1961 10.7737 35.9249 9.02787 35.6663 6.96774H33.2903C32.0098 6.96774 30.9677 5.92568 30.9677 4.64516C30.9677 3.36465 32.0098 2.32258 33.2903 2.32258H36.9855C38.1577 0.866323 39.9252 0 41.8065 0C45.2214 0 48 2.77858 48 6.19355ZM41.5107 5.41935H46.3819C46.0111 3.22606 44.1035 1.54839 41.8065 1.54839C40.7419 1.54839 39.7277 1.92077 38.9133 2.57032C39.8191 2.904 40.5825 3.56284 41.0323 4.46245L41.5107 5.41935ZM33.2903 3.87097C32.8637 3.87097 32.5161 4.21858 32.5161 4.64516C32.5161 5.07174 32.8637 5.41935 33.2903 5.41935H39.7796L39.6472 5.15458C39.2516 4.36258 38.4557 3.87097 37.5701 3.87097H33.2903ZM46.3819 6.96774H37.231C37.6018 9.16103 39.5086 10.8387 41.8065 10.8387C44.1043 10.8387 46.0119 9.16103 46.3819 6.96774ZM28.6452 10.8387H27.0968V12.3871H28.6452V10.8387ZM23.2258 18.5806H26.3326C26.3342 17.328 27.0914 16.1466 28.3316 15.6805L33.2903 13.8209V11.6129C33.2903 11.1863 32.9427 10.8387 32.5161 10.8387H30.1936V13.9355H25.5484V10.8387H23.2258C22.7992 10.8387 22.4516 11.1863 22.4516 11.6129V17.8065C22.4516 18.233 22.7992 18.5806 23.2258 18.5806ZM44.9032 46.4516C45.7572 46.4516 46.4516 45.7572 46.4516 44.9032V17.0338C46.4516 14.4712 44.3675 12.3871 41.8049 12.3871C41.6207 12.3871 41.4387 12.4196 41.2653 12.4831L28.8751 17.1298C28.0761 17.4302 27.6697 18.3244 27.9693 19.1234C28.2604 19.8975 29.177 20.3218 29.9605 20.0307L42.3499 15.3848L42.8934 16.8348L38.7097 18.4041V44.9032C38.7097 45.7572 39.4041 46.4516 40.2581 46.4516C41.112 46.4516 41.8065 45.7572 41.8065 44.9032V42.5806V31.0769C41.8065 30.2981 41.4194 29.5757 40.7721 29.1445L39.8284 28.5159L40.687 27.2276L41.6307 27.8563C42.7099 28.5755 43.3548 29.7794 43.3548 31.0769V42.5806V44.9032C43.3548 45.7572 44.0493 46.4516 44.9032 46.4516Z" fill="#C62828"/>
</svg>
