<svg width="44" height="48" viewBox="0 0 44 48" fill="none" xmlns="http://www.w3.org/2000/svg">
<path d="M7.71956 31.7418H13.895V30.1935H7.71956C6.01668 30.1935 4.63184 31.5824 4.63184 33.2902V39.4838C4.63184 41.1916 6.01668 42.5805 7.71956 42.5805H13.895V41.0322H7.71956C6.86812 41.0322 6.1757 40.3377 6.1757 39.4838V37.1612H13.895V35.6128H6.1757V33.2902C6.1757 32.4363 6.86812 31.7418 7.71956 31.7418Z" fill="#C62828"/>
<path d="M24.7016 34.8386V33.2902C24.7016 31.5824 23.3168 30.1935 21.6139 30.1935H18.5262C16.8233 30.1935 15.4385 31.5824 15.4385 33.2902V39.4838C15.4385 41.1916 16.8233 42.5805 18.5262 42.5805H21.6139C23.3168 42.5805 24.7016 41.1916 24.7016 39.4838V37.9354H23.1578V39.4838C23.1578 40.3377 22.4654 41.0322 21.6139 41.0322H18.5262C17.6748 41.0322 16.9823 40.3377 16.9823 39.4838V33.2902C16.9823 32.4363 17.6748 31.7418 18.5262 31.7418H21.6139C22.4654 31.7418 23.1578 32.4363 23.1578 33.2902V34.8386H24.7016Z" fill="#C62828"/>
<path d="M35.5093 37.9354V34.8386C35.5093 32.2768 33.432 30.1935 30.8777 30.1935C28.3234 30.1935 26.2461 32.2768 26.2461 34.8386V37.9354C26.2461 40.4972 28.3234 42.5805 30.8777 42.5805C33.432 42.5805 35.5093 40.4972 35.5093 37.9354ZM27.79 37.9354V34.8386C27.79 33.1307 29.1748 31.7418 30.8777 31.7418C32.5806 31.7418 33.9654 33.1307 33.9654 34.8386V37.9354C33.9654 39.6433 32.5806 41.0322 30.8777 41.0322C29.1748 41.0322 27.79 39.6433 27.79 37.9354Z" fill="#C62828"/>
<path d="M29.3333 15.4839C37.4208 15.4839 44 8.88542 44 0.774194V0H33.9649C25.8774 0 19.2982 6.59845 19.2982 14.7097V15.4839V22.4516C19.2982 24.5861 21.0297 26.3226 23.1579 26.3226H28.5614C34.0946 26.3226 38.5965 30.8377 38.5965 36.3871C38.5965 41.9365 34.0946 46.4516 28.5614 46.4516H11.5789C6.04575 46.4516 1.54386 41.9365 1.54386 36.3871C1.54386 30.8377 6.04575 26.3226 11.5789 26.3226H15.4386V24.7742H11.5789C5.19432 24.7742 0 29.9837 0 36.3871C0 42.7905 5.19432 48 11.5789 48H28.5614C34.946 48 40.1404 42.7905 40.1404 36.3871C40.1404 29.9837 34.946 24.7742 28.5614 24.7742H23.1579C21.8811 24.7742 20.8421 23.7321 20.8421 22.4516V15.4839H29.3333ZM33.9649 1.54839H42.4338C42.0323 8.44645 36.31 13.9355 29.3333 13.9355H20.8645C21.2659 7.03742 26.9882 1.54839 33.9649 1.54839Z" fill="#C62828"/>
<path d="M14.6669 21.6775H13.123V23.2259H14.6669V21.6775Z" fill="#C62828"/>
<path d="M17.7548 21.6775H16.2109V23.2259H17.7548V21.6775Z" fill="#C62828"/>
<path d="M11.579 21.6775H10.0352V23.2259H11.579V21.6775Z" fill="#C62828"/>
</svg>
