<svg width="48" height="48" viewBox="0 0 48 48" fill="none" xmlns="http://www.w3.org/2000/svg">
<path d="M48 20.129H46.2603L43.6675 21.4933C43.3756 21.3323 43.0721 21.1958 42.7447 21.1138L39.4831 20.2976V19.9268C40.926 18.9197 41.8064 17.256 41.8064 15.4839V14.1305C41.8064 11.123 39.4498 8.6061 36.5534 8.5184C36.4064 8.51462 36.2616 8.51991 36.1161 8.52709L36.9617 6.54738L32.862 2.44884L30.4453 4.0218C29.5271 3.50466 28.5559 3.10207 27.5474 2.81968L26.9505 0H21.0503L20.4534 2.82044C19.4448 3.10282 18.4729 3.50542 17.5554 4.02256L15.1387 2.4496L11.0425 6.54587L11.8737 8.52709C11.842 8.52558 11.8117 8.51991 11.78 8.51915C10.2974 8.47606 8.90096 9.01701 7.84022 10.0467C6.77797 11.0757 6.19355 12.4567 6.19355 13.9355V15.4839C6.19355 17.256 7.07321 18.919 8.51613 19.926V20.2976L6.38861 20.8295L2.53238 18.5806H0V34.6229L7.61643 37.1613H9.0998L9.28503 36.5126L11.6197 37.9139C11.6579 39.1833 12.6759 40.2048 13.9442 40.2494C13.9888 41.5123 15.0038 42.5273 16.2668 42.5719C16.3114 43.8349 17.3264 44.8499 18.5893 44.8945C18.6355 46.187 19.6939 47.2258 20.997 47.2258C21.4808 47.2258 21.9553 47.075 22.3541 46.8062L23.0398 47.4118C23.4696 47.7902 24.0231 48 24.5977 48H24.7409C26.0292 48 27.0775 46.9585 27.0938 45.6744C28.3681 45.6581 29.4001 44.6261 29.4163 43.3518C30.6914 43.3356 31.7242 42.302 31.7389 41.027C33.0257 40.9967 34.0645 39.9454 34.0645 38.6515C34.0645 38.5736 34.0607 38.4968 34.0528 38.4194L48 31.4463V20.129ZM40.2581 14.1305V15.4839C40.2581 16.858 39.5156 18.1418 38.3203 18.8339L37.9332 19.0577L37.9362 21.5077L41.8042 22.4739L33.2903 26.955V24.8695C33.2903 23.8288 32.87 22.8758 32.1816 22.1715L34.8387 21.5077V19.0558L34.4524 18.8324C33.2578 18.1418 32.5161 16.858 32.5161 15.4839V13.9355C32.5161 12.8797 32.9335 11.8923 33.6922 11.157C34.4501 10.4221 35.4556 10.026 36.5069 10.0668C38.5751 10.1288 40.2581 11.952 40.2581 14.1305ZM25.1673 26.3464L21.6627 25.2263C20.0655 24.7145 18.3368 24.6381 16.7019 25.0003L16.2581 25.0985V24.8695C16.2581 23.8019 16.982 22.875 18.017 22.6157L22.4516 21.5077V19.0558L22.0653 18.8324C20.8707 18.1418 20.129 16.858 20.129 15.4839V13.9355C20.129 12.8797 20.5464 11.8923 21.3051 11.157C22.063 10.4221 23.075 10.026 24.1198 10.0668C26.188 10.1288 27.871 11.952 27.871 14.1305V15.4839C27.871 16.858 27.1285 18.1418 25.9332 18.8339L25.5461 19.0577L25.5491 21.5077L29.983 22.6157C31.018 22.875 31.7419 23.8019 31.7419 24.8695V27.7704L31.5507 27.871H31.0762L26.3165 26.5108C25.9415 26.4046 25.5552 26.3611 25.1673 26.3464ZM16.4316 11.5872C17.8855 8.77016 20.8117 6.96774 24 6.96774C27.158 6.96774 30.0718 8.74597 31.5367 11.5248C31.1681 12.2639 30.9677 13.0823 30.9677 13.9355V15.4839C30.9677 17.256 31.8474 18.919 33.2903 19.926V20.2976L30.1935 21.073L27.096 20.2976V19.9268C28.5389 18.9197 29.4194 17.256 29.4194 15.4839V14.1305C29.4194 11.123 27.0628 8.6061 24.1663 8.5184C22.6845 8.47492 21.2873 9.01625 20.2266 10.046C19.1651 11.0757 18.5806 12.4567 18.5806 13.9355V15.4839C18.5806 17.256 19.4603 18.919 20.9032 19.926V20.2976L17.8065 21.073L14.7089 20.2976V19.9268C16.1518 18.9197 17.0323 17.256 17.0323 15.4839V14.1305C17.0323 13.2195 16.813 12.3546 16.4316 11.5872ZM12.871 6.90499L15.3444 4.43158L17.5214 5.84841L17.938 5.59287C18.9817 4.95325 20.1098 4.48488 21.2903 4.20249L21.7666 4.08833L22.3053 1.54839H25.6954L26.2326 4.08758L26.7089 4.20136C27.8895 4.48412 29.0175 4.95249 30.0612 5.59211L30.4778 5.84766L32.6549 4.43082L35.1253 6.90197L34.2471 8.95804C33.6494 9.2151 33.0953 9.57686 32.6129 10.0445C32.5812 10.0755 32.5539 10.1087 32.5229 10.1405C30.699 7.24105 27.4744 5.41935 24 5.41935C20.5006 5.41935 17.267 7.25806 15.4476 10.187C14.9607 9.67742 14.3816 9.26462 13.7397 8.97618L12.871 6.90499ZM10.0645 21.5077V19.0558L9.67817 18.8324C8.48362 18.1418 7.74194 16.858 7.74194 15.4839V13.9355C7.74194 12.8797 8.15927 11.8923 8.91797 11.157C9.67591 10.4221 10.6837 10.026 11.7327 10.0668C13.8009 10.1288 15.4839 11.952 15.4839 14.1305V15.4839C15.4839 16.858 14.7414 18.1418 13.5461 18.8339L13.159 19.0577L13.162 21.5077L15.8184 22.1715C15.13 22.8758 14.7097 23.8288 14.7097 24.8695V25.4429L12.2949 25.9797L12.3576 25.7605L12.3871 24.3296L8.30406 21.9477L10.0645 21.5077ZM1.54839 20.129H2.11278L7.6807 23.3766L4.87122 34.6142L1.54839 33.5062V20.129ZM7.86744 35.6129L6.34362 35.1052L9.07296 24.189L10.8387 25.2188V25.4399L7.93246 35.6129H7.86744ZM13.1613 37.8417C13.1613 37.6134 13.2535 37.3896 13.4153 37.2278L14.7762 35.8669C14.938 35.7051 15.1618 35.6129 15.3901 35.6129C15.8687 35.6129 16.2581 36.0023 16.2581 36.4808C16.2581 36.7092 16.1658 36.933 16.004 37.0948L14.6431 38.4556C14.4813 38.6174 14.2576 38.7097 14.0292 38.7097C13.5507 38.7097 13.1613 38.3203 13.1613 37.8417ZM15.4839 40.1643C15.4839 39.936 15.5761 39.7122 15.7379 39.5504L17.0988 38.1895C17.2606 38.0277 17.4844 37.9355 17.7127 37.9355C18.1913 37.9355 18.5806 38.3248 18.5806 38.8034C18.5806 39.0318 18.4884 39.2555 18.3266 39.4173L16.9657 40.7782C16.8039 40.94 16.5801 41.0323 16.3518 41.0323C15.8732 41.0323 15.4839 40.6429 15.4839 40.1643ZM17.8065 42.4869C17.8065 42.2586 17.8987 42.0348 18.0605 41.873L19.4214 40.5121C19.5832 40.3503 19.807 40.2581 20.0353 40.2581C20.5139 40.2581 20.9032 40.6474 20.9032 41.126C20.9032 41.3543 20.811 41.5781 20.6492 41.7399L19.2883 43.1008C19.1265 43.2626 18.9027 43.3548 18.6744 43.3548C18.1958 43.3548 17.8065 42.9655 17.8065 42.4869ZM20.997 45.6774C20.5184 45.6774 20.129 45.2881 20.129 44.8095C20.129 44.5811 20.2213 44.3574 20.3831 44.1956L21.744 42.8347C21.9057 42.6729 22.1295 42.5806 22.3579 42.5806C22.8364 42.5806 23.2258 42.97 23.2258 43.4486C23.2258 43.6769 23.1336 43.9007 22.9718 44.0625L21.6109 45.4234C21.4491 45.5852 21.2253 45.6774 20.997 45.6774ZM24.7409 46.4516H24.5977C24.4003 46.4516 24.2113 46.3798 24.0643 46.2494L23.4851 45.7387L24.0665 45.1573C24.2741 44.9497 24.4351 44.7029 24.5542 44.4379L25.2581 45.0238C25.4422 45.1773 25.5484 45.4034 25.5484 45.6442C25.5484 46.0895 25.1862 46.4516 24.7409 46.4516ZM31.6837 39.4839H31.5499C31.3556 39.4839 31.1658 39.4151 31.0173 39.2903L26.8189 35.7917L25.827 36.9817L29.904 40.3787C30.0873 40.5321 30.1935 40.7582 30.1935 40.999C30.1935 41.4443 29.8314 41.8064 29.3861 41.8064H29.2171C29.0292 41.8064 28.8455 41.7399 28.7007 41.6189L24.4956 38.115L23.5037 39.3051L27.5806 42.7024C27.7647 42.8547 27.871 43.0808 27.871 43.3216C27.871 43.7669 27.5088 44.129 27.0635 44.129C26.7664 44.129 26.4768 44.0236 26.2489 43.8342L24.5209 42.3939C24.1402 41.6159 23.3581 41.0735 22.4422 41.041C22.3976 39.778 21.3826 38.763 20.1196 38.7184C20.075 37.4554 19.06 36.4404 17.797 36.3958C17.7516 35.1033 16.6932 34.0645 15.3901 34.0645C14.7539 34.0645 14.1313 34.3223 13.6815 34.7722L12.3206 36.1331C12.2393 36.2143 12.172 36.3066 12.1036 36.3981L9.72543 34.971L11.8102 27.6744L17.0368 26.5123C18.4079 26.2058 19.8535 26.2723 21.1905 26.7002L22.331 27.065L18.4646 28.9982C17.5811 29.4409 17.0323 30.3296 17.0323 31.3178V31.4709C17.0323 32.901 18.1958 34.0645 19.6259 34.0645C20.0958 34.0645 20.5581 33.9367 20.9599 33.6944L23.8427 31.9657C24.4219 31.6187 25.1991 31.6947 25.6992 32.1445L32.2405 38.0315C32.4156 38.1903 32.5161 38.4156 32.5161 38.6515C32.5161 39.1108 32.143 39.4839 31.6837 39.4839ZM46.4516 30.4892L33.4086 37.0112C33.3663 36.9662 33.3221 36.9235 33.2756 36.8819L26.7354 30.995C26.1623 30.4778 25.4214 30.1935 24.6494 30.1935C24.0851 30.1935 23.5309 30.347 23.0455 30.6381L20.1615 32.3676C19.9997 32.4651 19.8149 32.5161 19.6259 32.5161C19.049 32.5161 18.5806 32.0478 18.5806 31.4709V31.3178C18.5806 30.919 18.8022 30.5614 19.1583 30.3833L23.4768 28.224C24.2159 27.854 25.0932 27.7712 25.8897 28.0003L30.7549 29.3899L31.9332 29.4194L46.4516 21.778V30.4892Z" fill="#C62828"/>
</svg>
