<svg width="48" height="43" viewBox="0 0 48 43" fill="none" xmlns="http://www.w3.org/2000/svg">
<path d="M13.7098 17.1999H4.64551V37.5271H13.7098C15.7406 38.9969 18.2204 39.8726 20.9036 39.8726C23.5869 39.8726 26.0667 38.9969 28.0975 37.5271H37.1617V17.1999H28.0975C26.0667 15.7301 23.5869 14.8544 20.9036 14.8544C18.2204 14.8544 15.7406 15.7301 13.7098 17.1999ZM6.1939 18.7635H11.9316C9.82105 21.0074 8.51649 24.0312 8.51649 27.3635C8.51649 30.6958 9.82105 33.7196 11.9316 35.9635H6.1939V18.7635ZM10.0649 27.3635C10.0649 21.3277 14.9267 16.418 20.9036 16.418C26.8806 16.418 31.7424 21.3277 31.7424 27.3635C31.7424 33.3993 26.8806 38.309 20.9036 38.309C14.9267 38.309 10.0649 33.3993 10.0649 27.3635ZM35.6134 35.9635H29.8757C31.9862 33.7196 33.2908 30.6958 33.2908 27.3635C33.2908 24.0312 31.9862 21.0074 29.8757 18.7635H35.6134V35.9635Z" fill="#C62828"/>
<path d="M20.9034 17.9818C18.7351 17.9818 16.6246 18.7533 14.959 20.1558L15.9509 21.3561C17.1387 20.3563 18.5994 19.7447 20.1285 19.5886V21.8909H21.6769V19.5851C25.3286 19.9535 28.2413 22.8941 28.6053 26.5818H26.3228V28.1454H28.6027C28.4481 29.6904 27.8425 31.1654 26.8524 32.3641L28.0409 33.3654C29.4298 31.6846 30.1938 29.5533 30.1938 27.3636C30.1938 22.1902 26.0264 17.9818 20.9034 17.9818Z" fill="#C62828"/>
<path d="M21.6778 35.1386V32.8363H20.1294V35.142C16.4777 34.7736 13.565 31.833 13.201 28.1454H15.4843V26.5817H13.2044C13.359 25.0368 13.9646 23.5617 14.9546 22.363L13.7661 21.3617C12.3773 23.0425 11.6133 25.1738 11.6133 27.3635C11.6133 32.537 15.7806 36.7454 20.9036 36.7454C23.072 36.7454 25.1825 35.9738 26.8481 34.5713L25.8561 33.3711C24.6684 34.3701 23.2077 34.9825 21.6778 35.1386Z" fill="#C62828"/>
<path d="M20.1289 23.4545V28.1454H23.2257V26.5817H21.6773V23.4545H20.1289Z" fill="#C62828"/>
<path d="M40.2582 41.4364H1.54839V13.2909H40.2582V17.9818H41.8066V7.81818C41.8066 5.66284 40.0699 3.90909 37.9356 3.90909H34.8388V2.34545C34.8388 1.05248 33.7966 0 32.5162 0C31.2359 0 30.1936 1.05248 30.1936 2.34545V3.90909H27.0969V2.34545C27.0969 1.05248 26.0546 0 24.7743 0C23.4939 0 22.4517 1.05248 22.4517 2.34545V3.90909H19.3549V2.34545C19.3549 1.05248 18.3127 0 17.0323 0C15.7519 0 14.7097 1.05248 14.7097 2.34545V3.90909H11.6129V2.34545C11.6129 1.05248 10.5707 0 9.29035 0C8.00998 0 6.96776 1.05248 6.96776 2.34545V3.90909H3.87098C1.73665 3.90909 0 5.66284 0 7.81818V43H41.8066V35.1818H40.2582V41.4364ZM31.742 2.34545C31.742 1.91408 32.0891 1.56364 32.5162 1.56364C32.9434 1.56364 33.2904 1.91408 33.2904 2.34545V7.03636C33.2904 7.46774 32.9434 7.81818 32.5162 7.81818C32.0891 7.81818 31.742 7.46774 31.742 7.03636V2.34545ZM24.0001 2.34545C24.0001 1.91408 24.3471 1.56364 24.7743 1.56364C25.2014 1.56364 25.5485 1.91408 25.5485 2.34545V7.03636C25.5485 7.46774 25.2014 7.81818 24.7743 7.81818C24.3471 7.81818 24.0001 7.46774 24.0001 7.03636V2.34545ZM16.2581 2.34545C16.2581 1.91408 16.6051 1.56364 17.0323 1.56364C17.4595 1.56364 17.8065 1.91408 17.8065 2.34545V7.03636C17.8065 7.46774 17.4595 7.81818 17.0323 7.81818C16.6051 7.81818 16.2581 7.46774 16.2581 7.03636V2.34545ZM8.51616 2.34545C8.51616 1.91408 8.86318 1.56364 9.29035 1.56364C9.71752 1.56364 10.0645 1.91408 10.0645 2.34545V7.03636C10.0645 7.46774 9.71752 7.81818 9.29035 7.81818C8.86318 7.81818 8.51616 7.46774 8.51616 7.03636V2.34545ZM3.87098 5.47273H6.96776V7.03636C6.96776 8.32934 8.00998 9.38182 9.29035 9.38182C10.5707 9.38182 11.6129 8.32934 11.6129 7.03636V5.47273H14.7097V7.03636C14.7097 8.32934 15.7519 9.38182 17.0323 9.38182C18.3127 9.38182 19.3549 8.32934 19.3549 7.03636V5.47273H22.4517V7.03636C22.4517 8.32934 23.4939 9.38182 24.7743 9.38182C26.0546 9.38182 27.0969 8.32934 27.0969 7.03636V5.47273H30.1936V7.03636C30.1936 8.32934 31.2359 9.38182 32.5162 9.38182C33.7966 9.38182 34.8388 8.32934 34.8388 7.03636V5.47273H37.9356C39.216 5.47273 40.2582 6.5252 40.2582 7.81818V11.7273H1.54839V7.81818C1.54839 6.5252 2.59061 5.47273 3.87098 5.47273Z" fill="#C62828"/>
<path d="M46.4512 19.5454H47.9996V21.109H46.4512V19.5454Z" fill="#C62828"/>
<path d="M38.71 19.5454H44.9035V21.109H38.71V19.5454Z" fill="#C62828"/>
<path d="M46.4512 22.6726H47.9996V24.2362H46.4512V22.6726Z" fill="#C62828"/>
<path d="M38.71 22.6726H44.9035V24.2362H38.71V22.6726Z" fill="#C62828"/>
<path d="M46.4512 25.7999H47.9996V27.3636H46.4512V25.7999Z" fill="#C62828"/>
<path d="M38.71 25.7999H44.9035V27.3636H38.71V25.7999Z" fill="#C62828"/>
<path d="M46.4512 28.9271H47.9996V30.4908H46.4512V28.9271Z" fill="#C62828"/>
<path d="M38.71 28.9271H44.9035V30.4908H38.71V28.9271Z" fill="#C62828"/>
<path d="M46.4512 32.0545H47.9996V33.6182H46.4512V32.0545Z" fill="#C62828"/>
<path d="M38.71 32.0545H44.9035V33.6182H38.71V32.0545Z" fill="#C62828"/>
</svg>
