<svg width="48" height="47" viewBox="0 0 48 47" fill="none" xmlns="http://www.w3.org/2000/svg">
<path d="M45.5241 41.0202C45.0635 41.3725 44.7314 41.6273 43.9951 41.6273C43.2581 41.6273 42.9259 41.3725 42.4653 41.0202C41.9265 40.6065 41.2552 40.0923 39.9894 40.0923C38.7236 40.0923 38.0532 40.6065 37.5143 41.0202C37.0552 41.3725 36.7239 41.6273 35.9876 41.6273C35.2529 41.6273 34.9208 41.3725 34.4617 41.0202C33.9228 40.6065 33.2532 40.0923 31.9881 40.0923C30.7231 40.0923 30.0526 40.6065 29.5138 41.0202C29.5061 41.0264 29.4991 41.031 29.4914 41.0371C29.7159 38.6632 30.5203 36.3852 31.8658 34.3842L33.6348 31.7532C33.9166 31.3349 34.0645 30.8482 34.0645 30.3471C34.0645 29.8305 33.9058 29.35 33.6372 28.9486C34.927 27.0659 35.6129 24.8792 35.6129 22.5797C35.6129 20.3278 34.9471 18.1465 33.6867 16.2715L31.5817 13.1423C29.0493 9.37682 26.7321 5.41717 24.6929 1.3731L24 0L23.3071 1.3731C21.2671 5.41717 18.9499 9.37682 16.4183 13.1423L14.3133 16.2715C13.0529 18.1465 12.3871 20.3286 12.3871 22.5805C12.3871 24.88 13.073 27.0659 14.3628 28.9486C14.0942 29.3493 13.9355 29.8297 13.9355 30.3471C13.9355 30.8482 14.0834 31.3349 14.3652 31.7532L15.6139 33.6106L16.9022 32.7594L15.6534 30.9027C15.5427 30.737 15.4839 30.5451 15.4839 30.3471C15.4839 29.7952 15.936 29.347 16.4926 29.347H16.8526C17.191 29.347 17.5045 29.5135 17.6919 29.7921L18.5419 31.0555C19.7605 32.8691 21.8013 33.9521 24 33.9521V32.4171C22.32 32.4171 20.7608 31.5897 19.8294 30.2043L18.9794 28.941C18.5048 28.2341 17.7097 27.8119 16.8526 27.8119H16.4926C16.1675 27.8119 15.8594 27.8779 15.5737 27.9885C14.5022 26.3828 13.9355 24.5285 13.9355 22.5797C13.9355 20.6318 14.5115 18.7444 15.6015 17.1234L17.7066 13.9942C19.9912 10.5956 22.1048 7.04125 24 3.40933C25.8952 7.04125 28.0088 10.5956 30.2934 13.9942L32.3984 17.1234C33.4885 18.7452 34.0645 20.6325 34.0645 22.5805C34.0645 24.5285 33.4978 26.3836 32.4263 27.9885C32.1399 27.8787 31.8325 27.8119 31.5074 27.8119H31.1474C30.2903 27.8119 29.4945 28.2341 29.0199 28.941L28.1698 30.2043C27.5032 31.1952 26.4983 31.9166 25.3409 32.2359L25.7551 33.7149C27.2702 33.2974 28.5855 32.3534 29.4581 31.0562L30.3081 29.7921C30.4955 29.5135 30.809 29.347 31.1474 29.347H31.5074C32.064 29.347 32.5161 29.7952 32.5161 30.3471C32.5161 30.5451 32.4573 30.737 32.3466 30.902L30.5775 33.533C28.9525 35.95 28.0397 38.7315 27.8996 41.6197C27.2323 41.5982 26.9001 41.3572 26.4619 41.021C25.9223 40.6065 25.2526 40.0923 23.9876 40.0923C22.7226 40.0923 22.0521 40.6065 21.5133 41.0202C21.0821 41.3518 20.7507 41.5882 20.1027 41.6158C19.9765 39.0546 19.2348 36.5509 17.9265 34.332L16.5894 35.1065C17.6632 36.9286 18.312 38.9633 18.5094 41.0555C18.4932 41.0432 18.4785 41.0325 18.4614 41.0202C17.9226 40.6065 17.2529 40.0923 15.9879 40.0923C14.7228 40.0923 14.0524 40.6065 13.5143 41.0202C13.0552 41.3725 12.7246 41.6273 11.9892 41.6273C11.2552 41.6273 10.9246 41.3725 10.4655 41.021C9.92748 40.6073 9.25781 40.0923 7.99355 40.0923C6.72852 40.0923 6.05806 40.6065 5.52 41.0202C5.0609 41.3725 4.72955 41.6273 3.99484 41.6273C3.2609 41.6273 2.92955 41.3725 2.47123 41.0202C1.93316 40.6073 1.26348 40.0923 0 40.0923V41.6273C0.733935 41.6273 1.06529 41.8821 1.52361 42.2344C2.06168 42.6474 2.73135 43.1624 3.99484 43.1624C5.2591 43.1624 5.92955 42.6481 6.46761 42.2344C6.92671 41.8821 7.25884 41.6273 7.99355 41.6273C8.72748 41.6273 9.05884 41.8821 9.51793 42.2344C10.056 42.6481 10.7257 43.1624 11.9892 43.1624C13.2534 43.1624 13.9239 42.6481 14.4619 42.2344C14.921 41.8821 15.2532 41.6273 15.9879 41.6273C16.7226 41.6273 17.0547 41.8821 17.5138 42.2344C18.0526 42.6481 18.7231 43.1624 19.9874 43.1624C21.2516 43.1624 21.9221 42.6481 22.4609 42.2344C22.92 41.8821 23.2521 41.6273 23.9876 41.6273C24.7223 41.6273 25.0545 41.8821 25.5135 42.2344C26.0524 42.6481 26.7228 43.1624 27.9871 43.1624C29.2514 43.1624 29.9226 42.6481 30.4614 42.2344C30.9205 41.8821 31.2526 41.6273 31.9881 41.6273C32.7228 41.6273 33.055 41.8821 33.5141 42.2344C34.0529 42.6481 34.7234 43.1624 35.9876 43.1624C37.2519 43.1624 37.9231 42.6481 38.4619 42.2344C38.921 41.8821 39.2532 41.6273 39.9894 41.6273C40.7265 41.6273 41.0586 41.8821 41.5192 42.2344C42.0581 42.6481 42.7293 43.1624 43.9951 43.1624C45.2609 43.1624 45.9314 42.6481 46.4702 42.2344C46.9308 41.8821 47.263 41.6273 48 41.6273V40.0923C46.7342 40.0923 46.063 40.6065 45.5241 41.0202Z" fill="#C62828"/>
<path d="M43.9951 45.465C43.2581 45.465 42.9259 45.2101 42.4653 44.8579C41.9265 44.4442 41.2552 43.9299 39.9894 43.9299C38.7236 43.9299 38.0532 44.4442 37.5143 44.8579C37.0552 45.2101 36.7239 45.465 35.9876 45.465C35.2529 45.465 34.9208 45.2101 34.4617 44.8579C33.9228 44.4442 33.2532 43.9299 31.9881 43.9299C30.7231 43.9299 30.0526 44.4442 29.5138 44.8579C29.0547 45.2101 28.7234 45.465 27.9871 45.465C27.2524 45.465 26.9203 45.2101 26.4612 44.8579C25.9223 44.4442 25.2526 43.9299 23.9876 43.9299C22.7226 43.9299 22.0521 44.4442 21.5133 44.8579C21.0542 45.2101 20.7228 45.465 19.9874 45.465C19.2519 45.465 18.9205 45.2101 18.4614 44.8579C17.9226 44.4442 17.2529 43.9299 15.9879 43.9299C14.7228 43.9299 14.0524 44.4442 13.5143 44.8579C13.0552 45.2101 12.7246 45.465 11.9892 45.465C11.2552 45.465 10.9246 45.2101 10.4655 44.8586C9.92748 44.4449 9.25781 43.9299 7.99355 43.9299C6.72852 43.9299 6.05806 44.4442 5.52 44.8579C5.0609 45.2101 4.72955 45.465 3.99484 45.465C3.2609 45.465 2.92955 45.2101 2.47123 44.8579C1.93316 44.4449 1.26348 43.9299 0 43.9299V45.465C0.733935 45.465 1.06529 45.7198 1.52361 46.0721C2.06168 46.485 2.73135 47 3.99484 47C5.2591 47 5.92955 46.4858 6.46761 46.0721C6.92671 45.7198 7.25884 45.465 7.99355 45.465C8.72748 45.465 9.05884 45.7198 9.51793 46.0721C10.056 46.4858 10.7257 47 11.9892 47C13.2534 47 13.9239 46.4858 14.4619 46.0721C14.921 45.7198 15.2532 45.465 15.9879 45.465C16.7226 45.465 17.0547 45.7198 17.5138 46.0721C18.0526 46.4858 18.7231 47 19.9874 47C21.2516 47 21.9221 46.4858 22.4609 46.0721C22.92 45.7198 23.2521 45.465 23.9876 45.465C24.7223 45.465 25.0545 45.7198 25.5135 46.0721C26.0524 46.4858 26.7228 47 27.9871 47C29.2514 47 29.9226 46.4858 30.4614 46.0721C30.9205 45.7198 31.2526 45.465 31.9881 45.465C32.7228 45.465 33.055 45.7198 33.5141 46.0721C34.0529 46.4858 34.7234 47 35.9876 47C37.2519 47 37.9231 46.4858 38.4619 46.0721C38.921 45.7198 39.2532 45.465 39.9894 45.465C40.7265 45.465 41.0586 45.7198 41.5192 46.0721C42.0581 46.4858 42.7293 47 43.9951 47C45.2609 47 45.9314 46.4858 46.4702 46.0721C46.9308 45.7198 47.263 45.465 48 45.465V43.9299C46.7342 43.9299 46.063 44.4442 45.5241 44.8579C45.0635 45.2101 44.7314 45.465 43.9951 45.465Z" fill="#C62828"/>
<path d="M18.9958 14.8448L18.1807 16.0569L19.4691 16.9084L20.2842 15.6963L18.9958 14.8448Z" fill="#C62828"/>
<path d="M18.4949 18.3575L17.2067 17.5055L16.8908 17.9752C15.9711 19.3445 15.4849 20.9364 15.4849 22.5804C15.4849 24.0095 15.858 25.4195 16.5656 26.6575L17.9127 25.9015C17.3375 24.8929 17.0325 23.7447 17.0325 22.5804C17.0325 21.2403 17.4289 19.9424 18.1783 18.8272L18.4949 18.3575Z" fill="#C62828"/>
<path d="M4.64511 30.882C6.04563 30.882 7.44692 31.2098 8.69879 31.8307L12.9383 33.9322L11.4936 29.6348C10.5096 26.7082 7.75815 24.7419 4.64511 24.7419C2.93724 24.7419 1.54834 26.1188 1.54834 27.8119C1.54834 29.5051 2.93724 30.882 4.64511 30.882ZM4.64511 26.2769C7.09002 26.2769 9.25156 27.8219 10.025 30.1206L10.2874 30.902L9.39169 30.4576C7.92537 29.7307 6.28408 29.347 4.64511 29.347C3.79118 29.347 3.09673 28.6585 3.09673 27.8119C3.09673 26.9654 3.79118 26.2769 4.64511 26.2769Z" fill="#C62828"/>
<path d="M3.87109 36.2547C3.87109 37.5242 4.91316 38.5573 6.19367 38.5573H7.15058L7.31393 38.4767C8.21974 38.0277 9.23393 37.7897 10.2474 37.7897H13.9348L10.8388 35.4872C9.50645 34.4971 7.85664 33.9521 6.19367 33.9521C4.91316 33.9521 3.87109 34.9852 3.87109 36.2547ZM6.79058 37.0222H6.19367C5.76632 37.0222 5.41948 36.6776 5.41948 36.2547C5.41948 35.8318 5.76632 35.4872 6.19367 35.4872C7.27677 35.4872 8.35367 35.7765 9.292 36.3115C8.42722 36.4143 7.57793 36.6546 6.79058 37.0222Z" fill="#C62828"/>
<path d="M39.301 31.8307C40.5529 31.2098 41.9542 30.882 43.3547 30.882C45.0626 30.882 46.4515 29.5051 46.4515 27.8119C46.4515 26.1188 45.0626 24.7419 43.3547 24.7419C40.2417 24.7419 37.4902 26.7082 36.5062 29.6348L35.0615 33.9322L39.301 31.8307ZM37.9748 30.1206C38.7482 27.8219 40.9098 26.2769 43.3547 26.2769C44.2086 26.2769 44.9031 26.9654 44.9031 27.8119C44.9031 28.6585 44.2086 29.347 43.3547 29.347C41.7157 29.347 40.0744 29.7307 38.6081 30.4576L37.7124 30.902L37.9748 30.1206Z" fill="#C62828"/>
<path d="M37.1607 35.4872L34.0654 37.7897H37.7529C38.7663 37.7897 39.7805 38.0269 40.6863 38.4767L40.8497 38.5573H41.8066C43.0871 38.5573 44.1292 37.5242 44.1292 36.2547C44.1292 34.9852 43.0871 33.9521 41.8066 33.9521C40.1436 33.9521 38.4938 34.4971 37.1607 35.4872ZM42.5808 36.2547C42.5808 36.6776 42.2339 37.0222 41.8066 37.0222H41.2097C40.4216 36.6546 39.573 36.4143 38.7083 36.3115C39.6466 35.7765 40.7235 35.4872 41.8066 35.4872C42.2339 35.4872 42.5808 35.8318 42.5808 36.2547Z" fill="#C62828"/>
</svg>
