<svg width="48" height="48" viewBox="0 0 48 48" fill="none" xmlns="http://www.w3.org/2000/svg">
<path fill-rule="evenodd" clip-rule="evenodd" d="M48 17.8881L44.527 14.4151C45.0884 13.6548 45.3917 12.7386 45.3917 11.7762C45.3917 10.5865 44.9287 9.46817 44.0875 8.6277L39.3723 3.91246C38.5318 3.07125 37.4135 2.60831 36.2238 2.60831C35.2617 2.60831 34.3489 2.91607 33.5887 3.47675L30.1119 0L9.00373 21.1082L4.91557 16.7925L3.44243 18.2656C2.41209 19.2959 1.84432 20.6658 1.84432 22.1229C1.84432 23.53 2.37889 24.8662 3.34767 25.8839L3.77555 26.3364L0 30.1119L17.8881 48L30.1119 35.7762L40.8458 46.5101C41.6023 47.2666 42.6084 47.6837 43.6779 47.6837C45.8867 47.6837 47.6837 45.8867 47.6837 43.6779C47.6837 42.6084 47.2673 41.6023 46.5101 40.8458L35.7762 30.1119L48 17.8881ZM25.6645 25.6645L28.4914 26.0689L26.0681 28.4922L25.6645 25.6645ZM39.7274 36.2238L38.5158 37.4355L28.9003 27.8199L30.1119 26.6083L39.7274 36.2238ZM26.6083 30.1119L27.8199 28.9003L37.4355 38.5158L36.2238 39.7274L26.6083 30.1119ZM40.8078 37.3042L42.0194 38.5158L38.5158 42.0194L37.3042 40.8078L40.8078 37.3042ZM45.8393 17.8881L34.6958 29.0316L32.7202 27.056L41.8881 17.8881L39.2055 15.2055L41.1715 13.2202L45.8393 17.8881ZM38.292 4.99279L43.0072 9.70803C43.5597 10.2605 43.8637 10.9954 43.8637 11.7762C43.8637 12.3286 43.7115 12.858 43.4273 13.3157L41.1666 11.0543L36.9856 15.2768L30.4283 8.72022L34.1557 4.99279C35.2603 3.88784 37.187 3.88784 38.292 4.99279ZM30.1119 2.16066L32.4695 4.51828L30.4939 6.49391L28.1363 4.13628L30.1119 2.16066ZM27.056 5.21661L29.4136 7.57423L28.2676 8.72022L36.9901 17.4434L38.1308 16.2915L39.7274 17.8881L31.6399 25.9756L30.4715 24.8076L23.8631 23.8631L24.8076 30.4715L25.9756 31.6399L19.6675 37.948C19.3015 38.314 18.8147 38.5158 18.2977 38.5158C17.2293 38.5158 16.3601 37.6462 16.3601 36.5775C16.3601 36.0604 16.5619 35.5751 16.9268 35.2092L19.7179 32.4177L10.055 22.2176L27.056 5.21661ZM4.52276 19.3456L4.88572 18.983L17.5863 32.3886L15.8475 34.1281C15.3637 34.6112 15.0407 35.2121 14.9052 35.8668L4.45561 24.8319C3.75653 24.0985 3.3723 23.1368 3.3723 22.1229C3.3723 21.0739 3.78115 20.0875 4.52276 19.3456ZM17.8881 45.8393L2.16066 30.1119L4.82604 27.4462L15.8047 39.0414L15.8337 39.0138C16.4623 39.6495 17.3349 40.0438 18.2977 40.0438C19.2228 40.0438 20.0935 39.683 20.7478 39.0284L27.056 32.7202L29.0316 34.6958L17.8881 45.8393ZM43.6779 46.1557C43.0165 46.1557 42.3947 45.8983 41.9261 45.4297L39.5961 43.0997L43.0997 39.5961L45.4297 41.9261C45.8975 42.3947 46.1557 43.0165 46.1557 43.6779C46.1557 45.044 45.044 46.1557 43.6779 46.1557ZM33.708 6.6521L32.6273 7.7328L34.1553 9.26041L35.2356 8.18008L33.708 6.6521ZM37.528 10.472L36.4473 11.5527L37.9752 13.0804L39.0556 12L37.528 10.472ZM26.2919 20.4964L24 22.7884L20.6277 19.4161L22.9197 17.1241L20.6277 14.8321L24 11.4598L26.2919 13.7518L28.5839 11.4598L31.9562 14.8321L29.6642 17.1241L31.9562 19.4161L28.5839 22.7884L26.2919 20.4964ZM24 13.6205L22.7883 14.8321L25.0803 17.1241L22.7883 19.4161L24 20.6277L26.2919 18.3357L28.5839 20.6277L29.7956 19.4161L27.5036 17.1241L29.7956 14.8321L28.5839 13.6205L26.2919 15.9125L24 13.6205ZM12 22.2485L13.0803 21.1678L23.7762 31.8637L22.6958 32.944L12 22.2485ZM15.372 18.8759L14.2916 19.9562L21.1675 26.8321L22.2479 25.7518L15.372 18.8759Z" fill="#C62828"/>
</svg>
