<svg width="223" height="26" viewBox="0 0 223 26" xmlns="http://www.w3.org/2000/svg">
<path fill-rule="evenodd" clip-rule="evenodd" d="M0.000429366 24.125C-0.0152286 24.6935 0.399711 25.137 0.86162 25.3182C1.3157 25.5118 1.79326 25.5368 2.12991 25.5431C2.27866 25.5431 2.39609 25.5368 2.49003 25.5306C2.56827 25.5243 2.63871 25.5243 2.70132 25.5243H2.70143H50.051C50.646 25.5243 51.1392 25.3869 51.4524 25.1183C51.7655 24.8497 51.8438 24.5186 51.8438 24.2437C51.8372 23.7976 51.6494 23.4283 51.5885 23.3084C51.5778 23.2873 51.571 23.2739 51.5698 23.2692L51.5385 23.213L26.4937 0.674653L26.478 0.662156C25.8673 0.199895 25.2253 0 24.6617 0C23.6046 0.0173308 23.0229 0.590274 22.9104 0.701062C22.9013 0.710073 22.8952 0.716026 22.8923 0.718375L0.219639 23.2442L0.188341 23.313C0.0630773 23.6128 0.000429366 23.8752 0.000429366 24.125ZM27.1926 18.8652L1.09577 23.9229C1.1133 23.8447 1.14283 23.7578 1.19045 23.6628L15.2384 9.70409L27.1926 18.8652ZM32.2512 12.9881L28.5703 17.8764L25.5224 2.89823L32.2512 12.9881ZM29.8744 17.7966L33.1886 13.397L38.1457 13.6473L29.8744 17.7966ZM28.136 19.5543L1.76846 24.6656C1.89401 24.6808 2.02395 24.6873 2.13774 24.6873C2.24735 24.6873 2.34129 24.681 2.39609 24.6748H2.39612H2.39616H2.39619C2.49793 24.6685 2.5997 24.6623 2.70927 24.6623H36.7506L28.136 19.5543ZM38.5513 24.6623H50.0588C50.4737 24.656 50.6146 24.5811 50.6773 24.5311C50.7399 24.4811 50.7791 24.3874 50.7791 24.2437C50.7791 24.0438 50.6851 23.7877 50.6303 23.6815L39.7249 13.8663L29.2182 19.1338L38.5513 24.6623ZM38.5568 12.815L25.7342 1.27434C25.6777 1.23301 25.6231 1.19557 25.5704 1.16168L33.1635 12.5433L38.5568 12.815ZM24.0495 1.02359C23.9019 1.10492 23.7988 1.19187 23.7691 1.22436C23.7614 1.23055 23.7613 1.23062 23.7537 1.24275L23.7535 1.24311L15.9135 9.03326L27.4953 17.9155L24.0495 1.02359Z" fill="currentColor"/>
<path fill-rule="evenodd" clip-rule="evenodd" d="M84.2157 9.17286C83.0662 8.22408 81.457 8.12744 80.2856 8.12744V8.15381H69.6339C68.9552 8.15381 67.9918 8.25044 67.3459 8.87418C66.8752 9.31343 66.6562 10.0162 66.6562 10.6575V23.0796C66.6562 24.0723 67.1818 24.6434 67.4007 24.8454C68.1799 25.5577 69.0657 25.5499 70.0261 25.5413C70.1317 25.5404 70.2382 25.5394 70.3455 25.5394H80.7126C82.0372 25.5394 83.4384 25.5394 84.6755 24.4237C85.9125 23.2992 85.9125 21.9112 85.9125 20.7691C85.9125 19.794 85.9125 18.5553 84.8944 17.6592C84.369 17.1848 83.526 16.8071 82.5079 16.7368V16.6314C83.318 16.5787 83.9311 16.3327 84.5551 15.7353C85.5075 14.8129 85.5732 13.8465 85.5732 12.9065C85.5732 11.7557 85.4199 10.1656 84.2157 9.17286ZM78.6764 15.4278H70.7506V11.6942C70.7506 11.5009 70.7725 11.1583 71.0243 10.9299C71.2524 10.7229 71.5524 10.7251 71.8591 10.7274C71.891 10.7276 71.9229 10.7278 71.9548 10.7278H78.6326C79.3223 10.7278 80.0667 10.7278 80.6469 11.1759C81.3256 11.6942 81.3585 12.5639 81.3585 13.0383C81.3585 14.2331 81.0519 14.6547 80.8987 14.8041C80.3403 15.4278 79.4755 15.4278 78.6764 15.4278ZM71.0023 22.6404C70.8381 22.491 70.7506 22.1923 70.7506 21.6213H70.7615V18.037H79.0595C80.3951 18.037 81.0081 18.485 81.2599 18.7574C81.654 19.2318 81.7197 20.0224 81.7197 20.5232C81.7197 21.0678 81.6212 21.8409 81.1614 22.289C80.5483 22.8863 79.4317 22.9127 78.7749 22.9127H72.3379L72.2659 22.913C71.9268 22.9148 71.3179 22.9181 71.0023 22.6404ZM137.756 19.1078C137.756 17.7824 137.552 15.4233 135.794 14.0812C134.117 12.8141 131.429 12.7641 129.609 12.7724C127.79 12.7724 125.101 12.8141 123.425 14.0895C121.667 15.4399 121.462 17.7907 121.462 19.2078C121.462 20.4749 121.605 22.834 123.425 24.2011C125.101 25.4515 127.79 25.5432 129.609 25.5432C131.367 25.5432 134.148 25.4515 135.794 24.2011C136.918 23.3258 137.756 21.7503 137.756 19.1078ZM129.609 23.4259C128.393 23.4259 126.921 23.3008 125.94 22.3839C124.989 21.4836 124.958 20.2165 124.958 19.1828C124.958 18.3826 124.958 16.7737 125.909 15.8818C126.86 14.9815 128.515 14.8898 129.609 14.8898C130.815 14.8898 132.298 14.9898 133.279 15.8818C134.276 16.7802 134.267 18.06 134.261 18.9791V18.9821C134.261 19.0512 134.26 19.1182 134.26 19.1828C134.26 20.2665 134.26 21.4669 133.248 22.3839C132.236 23.3092 130.887 23.4259 129.609 23.4259ZM140.719 14.7229C140.719 14.3395 140.751 13.7602 141.237 13.3512C141.881 12.7694 142.924 12.7709 143.627 12.7718L143.709 12.7719H149.421C151.105 12.7719 152.659 12.8912 153.944 13.8113C154.797 14.4162 155.531 15.379 155.531 17.1341V25.5432H151.958V17.9776C151.958 17.1341 151.871 16.3162 151.288 15.7113C150.77 15.1745 150.036 14.9359 148.73 14.9359H145.091C144.875 14.9359 144.659 14.9359 144.487 15.0808C144.303 15.2512 144.303 15.4471 144.303 15.609V25.5347H140.719V14.7229ZM104.289 23.3793C104.47 23.3793 104.628 23.4896 104.628 23.6254H104.639V25.2972C104.628 25.4329 104.481 25.5432 104.3 25.5432H95.2572C93.532 25.5432 91.491 25.4244 90.0928 23.9309C88.9765 22.7259 88.875 20.9777 88.875 19.2975C88.875 16.9214 89.0329 15.1648 90.8822 13.9683C92.7314 12.7717 95.6068 12.7717 97.1967 12.7717C99.1812 12.7717 101.222 12.8481 102.778 13.5864C104.752 14.5199 105.169 16.1067 105.169 17.7106C105.169 18.364 105.078 19.1023 104.368 19.637C103.861 20.0188 103.218 20.1122 102.553 20.1122H92.7314C92.7314 20.6723 92.8216 21.4784 92.9569 21.8688C93.4305 23.235 94.9866 23.3793 96.3623 23.3793H104.289ZM96.9561 14.9356C95.9629 14.935 94.4852 14.9339 93.4981 15.7758C92.7867 16.3742 92.7645 17.0165 92.738 17.7839C92.7359 17.8435 92.7338 17.904 92.7314 17.9652H100.478C101.211 17.9652 101.312 17.5579 101.312 17.2184C101.312 16.4207 100.771 15.8182 100.23 15.5127C99.3053 14.9781 98.0875 14.9357 97.0388 14.9357L96.9561 14.9356ZM195.194 12.7717H192.287C192.116 12.7717 191.977 12.8825 191.977 13.0188V13.0273V22.3397V22.3398C191.977 22.5784 191.977 22.868 191.678 23.1065C191.464 23.2769 191.133 23.3706 190.652 23.3706H187.724C186.452 23.3706 185.49 23.2514 184.849 22.5527C184.4 22.0671 184.24 21.4451 184.24 20.3119V13.0273V13.0188C184.24 12.8825 184.101 12.7717 183.93 12.7717H181.023C180.841 12.7717 180.713 12.891 180.713 13.0273V20.8232C180.713 22.3908 181.012 23.6688 182.348 24.5805C183.438 25.3303 184.678 25.5432 186.516 25.5432H192.17C193.014 25.5432 193.986 25.5177 194.681 25.0576C195.493 24.5294 195.525 23.7114 195.525 23.2514V13.0188C195.504 12.8825 195.365 12.7717 195.194 12.7717ZM158.754 8.12744H161.204C161.348 8.12744 161.465 8.24221 161.456 8.39231V10.1935C161.456 10.3348 161.339 10.4495 161.195 10.4495H158.754C158.61 10.4495 158.494 10.3348 158.494 10.1935V10.1847V8.39231V8.38349C158.494 8.24222 158.61 8.12744 158.754 8.12744ZM161.204 12.7717H158.754C158.61 12.7717 158.494 12.8825 158.494 13.0188V13.0273V25.2876V25.2962C158.494 25.4325 158.61 25.5432 158.754 25.5432H161.195C161.339 25.5432 161.456 25.4325 161.456 25.2962V13.0273C161.465 12.8825 161.348 12.7717 161.204 12.7717ZM216.446 12.7717C217.634 12.7717 219.489 12.9421 220.688 13.7856C221.632 14.4842 222.199 15.643 222.188 16.921V25.2962C222.188 25.4325 222.043 25.5432 221.866 25.5432H218.845C218.667 25.5432 218.523 25.4325 218.523 25.2962V25.2876V17.347C218.523 16.7932 218.434 16.0434 217.834 15.5407C217.201 14.9869 216.257 14.9358 215.602 14.9358H212.181V25.2451V25.3473C212.176 25.3558 212.173 25.3643 212.17 25.3728C212.167 25.3814 212.165 25.3899 212.159 25.3984C212.148 25.4154 212.137 25.424 212.126 25.4325C212.115 25.4495 212.104 25.4666 212.092 25.4751C212.083 25.4802 212.074 25.4852 212.065 25.4901C212.045 25.5015 212.027 25.5117 212.004 25.5177C212.004 25.5177 212.004 25.5262 211.993 25.5262C211.97 25.5262 211.959 25.5262 211.937 25.5347H211.837H211.826H211.782H208.805C208.639 25.5347 208.505 25.4325 208.494 25.3047C208.494 25.3004 208.491 25.2983 208.489 25.2962C208.486 25.294 208.483 25.2919 208.483 25.2876V25.2791C208.483 25.2749 208.486 25.2727 208.489 25.2706C208.49 25.2696 208.491 25.2687 208.492 25.2675C208.493 25.2661 208.494 25.2644 208.494 25.2621V14.9358H203.119C202.586 14.9358 202.397 15.0636 202.308 15.1318C202.242 15.1744 202.153 15.3192 202.153 15.8049V25.2962C202.153 25.4325 202.008 25.5432 201.831 25.5432H198.81C198.632 25.5432 198.488 25.4325 198.488 25.2962V25.2876V14.9869C198.488 14.6206 198.543 13.9986 198.954 13.5385C199.576 12.8654 200.709 12.7717 201.464 12.7717H216.446ZM177.444 23.3706H172.25C170.829 23.3706 169.152 23.2514 168.406 22.0245C167.997 21.3514 167.915 20.116 167.915 19.3748C167.915 18.9913 167.946 17.6367 168.181 16.9636C168.559 15.8815 169.653 14.9358 171.943 14.9358H177.106C177.27 14.9358 177.392 14.8251 177.403 14.6887V14.6802V13.0273V13.0188C177.392 12.8825 177.27 12.7717 177.106 12.7717H170.839C168.089 12.7717 166.791 13.6152 166.147 14.1435C164.439 15.6174 164.419 17.807 164.419 19.3236C164.419 21.1299 164.531 22.7231 165.809 23.9756C167.2 25.3473 169.224 25.5432 170.379 25.5432H177.454C177.617 25.5432 177.75 25.4325 177.75 25.2962V23.6262C177.74 23.4814 177.607 23.3706 177.444 23.3706ZM108.453 14.5956H108.443C108.282 14.5956 108.142 14.4812 108.131 14.3492V12.6244V12.6156C108.142 12.4836 108.26 12.378 108.421 12.3604H110.342V8.40026V8.39145V8.38266C110.342 8.24185 110.482 8.12744 110.654 8.12744H113.573H113.584C113.756 8.13624 113.895 8.25065 113.895 8.39145V12.3604H118.103C118.264 12.378 118.393 12.4836 118.393 12.6244V14.3844C118.371 14.5076 118.243 14.6044 118.082 14.6044H113.906V19.9022C113.906 19.9649 113.906 20.0293 113.905 20.0952C113.9 20.9717 113.892 22.098 114.851 22.7447C115.645 23.2903 116.976 23.3167 117.62 23.3167H118.178C118.361 23.3167 118.5 23.4311 118.5 23.5719V25.2879C118.489 25.4287 118.35 25.5432 118.178 25.5432H116.278C114.121 25.5432 112.961 25.2439 111.963 24.5751C110.933 23.8799 110.353 22.9031 110.353 21.2398V14.5956H108.475H108.453Z" fill="currentColor"/>
</svg>
