<svg width="18" height="19" viewBox="0 0 18 19" fill="none" xmlns="http://www.w3.org/2000/svg">
<path d="M16.2037 12.6257L13.6637 12.3357C13.0537 12.2657 12.4537 12.4757 12.0237 12.9057L10.1837 14.7457C7.35367 13.3057 5.03367 10.9957 3.59367 8.15573L5.44367 6.30573C5.87367 5.87573 6.08367 5.27573 6.01367 4.66573L5.72367 2.14573C5.60367 1.13573 4.75367 0.375732 3.73367 0.375732H2.00367C0.873674 0.375732 -0.0663265 1.31573 0.00367348 2.44573C0.533673 10.9857 7.36367 17.8057 15.8937 18.3357C17.0237 18.4057 17.9637 17.4657 17.9637 16.3357V14.6057C17.9737 13.5957 17.2137 12.7457 16.2037 12.6257Z" fill="white"/>
</svg>
