<svg width="54" height="32" fill="none" xmlns="http://www.w3.org/2000/svg"><path d="M9.38 9.5l-1.817 6.304h1.449s2.147.126 2.811-3.461C12.383 9.307 10.288 9.5 9.38 9.5zM27.002 0C12.086 0 0 7.165 0 15.998 0 21.316 4.38 26.02 11.11 28.93c.617-2.727 3.041-12.865 6.828-22.374 1.98-4.965 7.434-4.09 9.26-1.982 0 0 1.052 1.213.392 2.567 0 0-.406 1.15-2.012 1.218-1.114.043-2.018-.914-2.018-2.04 0-.895.57-1.644 1.363-1.92-.13-.246-.392-.502-.918-.502-1.014 0-1.63-.953-4.418 7.174-.134.387-.263.783-.397 1.18h5.876l-2.96 9.243h-2.959l2.654-8.281h-2.926c-2.032 6.28-4.045 13.909-4.805 16.834C17.91 31.289 22.317 32 27.002 32 41.914 32 54 24.835 54 16.002 54 7.165 41.914 0 27.002 0zM15.418 12.106c-.87 4.07-3.853 5.071-6.172 5.071h-2.06l-.98 3.554H2.515l3.25-11.115h-1.3v-1.33h7.621s4.198-.25 3.332 3.82zm15.62 9.388h-6.756l4.442-8.281H26.05l.406-.962h6.617l-4.264 8.238h2.7l-.473 1.005zm11.091-4.752h-6.005s-1.39 3.322.306 3.568c2.123.305 2.3-2.07 2.3-2.07h2.969c0 1.147-1.042 3.7-4.79 3.7-4.28 0-4.098-3.385-3.792-4.797.297-1.378 1.44-5.42 5.795-5.42s3.217 5.02 3.217 5.02zm8.52-1.035c-.828 0-1.511-.58-1.698-1.353-.75-.406-1.1.16-1.233.508l-.072.227-1.874 5.995H42.35l2.677-7.871h-1.305v-1.127h4.356v.44c1.314-.469 2.648-.348 2.648-.348l-.005.005a1.756 1.756 0 011.678 1.765c0 .971-.779 1.76-1.75 1.76zM38.864 13.3c-1.822-.02-2.525 2.533-2.525 2.533h3.012c.894-2.543-.487-2.533-.487-2.533z" fill="#616161"/></svg>