<svg width="110" height="32" fill="none" xmlns="http://www.w3.org/2000/svg"><path d="M92.647 12.392h-6.511c-1.034 0-1.778.232-2.328.793-.562.554-.782 1.297-.776 2.362v3.22c-.006 1.068.214 1.808.776 2.363.556.563 1.311.796 2.355.793h6.484c1.031 0 1.775-.233 2.328-.793.559-.555.782-1.295.776-2.362v-3.221c.006-1.065-.217-1.808-.776-2.362-.553-.56-1.293-.793-2.328-.793zm.291 6.209c-.018.43-.226.64-.65.656h-5.786c-.434-.018-.636-.308-.654-.73V15.69c.018-.432.223-.638.654-.656h5.785c.428.018.636.223.651.656v2.91zm-30.137-6.209H56.32c-1.046-.006-1.801.226-2.357.793-.562.555-.782 1.294-.776 2.362v3.22c-.006 1.068.214 1.808.776 2.363.556.563 1.31.796 2.357.796h6.481c1.032 0 1.778-.233 2.328-.796.559-.555.782-1.295.776-2.362v-3.221c.006-1.068-.217-1.807-.776-2.362-.55-.564-1.293-.793-2.328-.793zm.294 6.212c-.02.43-.225.635-.654.653h-5.788c-.428-.018-.636-.352-.654-.782V15.69c.018-.432.226-.638.654-.656h5.788c.429.018.634.227.654.656v2.914zM42.784 12.37h-.761c-.071 0-.137 0-.193.004h-.167l-.14.008c-.814.045-1.415.284-1.902.782-.56.558-.782 1.294-.78 2.359v6.376h2.813v-2.64h6.68l-.005-2.55H41.65v-1.177c0-.129.021-.266.072-.346.047-.075.086-.125.288-.146l.086-.006h8.426V12.37h-7.739zm25.249 2.685h5.045v6.865h2.813v-6.865h5.036v-2.663H68.033v2.663zm41.191-1.873c-.484-.49-1.147-.73-2.015-.779l-.206-.008a3.546 3.546 0 00-.187-.006h-8.497v9.53h2.813v-6.882h5.405l.095.006c.086 0 .244.074.359.2.119.13.2.292.194.444v6.23l2.815.003v-6.373c.006-1.068-.217-1.81-.776-2.365zM15.947 0C7.141.003 0 7.163 0 16s7.141 16 15.947 16c4.406 0 8.393-1.792 11.28-4.685A15.986 15.986 0 0031.897 16c0-4.42-1.787-8.416-4.67-11.312A15.888 15.888 0 0015.947 0zm14.122 16.015c0 1.953-.396 3.817-1.11 5.511a14.28 14.28 0 01-3.026 4.503 14.064 14.064 0 01-9.986 4.149c-1.95 0-3.805-.397-5.494-1.113a14.229 14.229 0 01-4.49-3.036 14.23 14.23 0 01-3.026-4.503 14.172 14.172 0 01-1.109-5.511c0-1.957.396-3.82 1.11-5.514A14.184 14.184 0 015.963 6a14.04 14.04 0 019.983-4.148 14.054 14.054 0 019.986 4.147 14.234 14.234 0 013.027 4.5 14.175 14.175 0 011.109 5.515z" fill="#616161"/><path d="M21.474 9.874s.06-.074.122-.196c.06-.123.119-.293.122-.49a.862.862 0 00-.098-.402.95.95 0 00-.464-.45 1.372 1.372 0 00-.306-.09h-4.641c-.048 0-.158.027-.3.057a1.63 1.63 0 00-.497.211c-.297.188-.473.445-.479.45l-6.305 8.71c0 .002-.066.083-.131.21a1.13 1.13 0 00-.13.514c.002.414.243.695.249.704l2.138 2.94c.008.015.35.45.978.453.633-.006.969-.51.978-.518l8.764-12.103zm.024-.683zM8.621 16.212l4.572-6.406c.01-.015.114-.224.114-.534a1.18 1.18 0 00-.122-.477c-.25-.507-.806-.552-.904-.552H7.753c-.006 0-.018.024-.039.024-.11 0-.422.027-.725.206-.297.176-.482.45-.488.456L4.34 11.917a1.03 1.03 0 00-.211.633c.006.402.282.754.285.763l2.108 2.917c.006.009.39.456 1.038.459.65-.003 1.061-.465 1.061-.477zM24.965 8.47a.821.821 0 00-.512-.17c-.52.003-.779.378-.788.387L12.888 23.57a1.228 1.228 0 00-.24.722c.002.411.24.7.276.745l2.019 2.78c.02.036.333.504 1.025.507.589-.006.946-.48.952-.486L27.462 13.29c.003-.003.03-.083.095-.218.065-.134.095-.322.095-.54v-.008c0-.38-.101-.564-.116-.579L25.131 8.64c-.003-.003-.05-.087-.166-.17z" fill="#616161"/></svg>