<svg width="125" height="32" fill="none" xmlns="http://www.w3.org/2000/svg"><path fill-rule="evenodd" clip-rule="evenodd" d="M26.675 30.868V1.252c3.745.248 6.802 1.994 9.356 4.709 2.742 2.909 4.45 6.5 5.925 10.167C44.451 9.305 49.147 1.942 57.08 1.252v10.294c1.109-3.216 2.764-6.133 5.491-8.27C65.477.99 69.081 0 72.736 0c6.614 0 13.236 4.544 14.42 11.277H79.53c-1.303-3.015-4.075-4.222-7.266-4.222-5.049 0-8.914 3.75-8.914 8.855 0 5.293 3.506 9.17 8.87 9.17 2.261 0 4.419-.698 6.052-2.31.906-.907 1.453-2.039 1.94-3.209h-8.78v-7.07h16.263V1.252h15.244v7.123h-7.963v4.109h7.963v7.07h-7.963v4.191h7.963v7.123H87.695V19.554c-.517 2.512-1.565 4.648-3.168 6.665C81.477 30.06 76.976 32 72.107 32c-3.693 0-7.319-.96-10.173-3.396-2.517-2.145-4.022-4.919-4.846-8.075V30.86h-7.132V14.83c-3.423 4.551-4.577 10.437-4.689 16.038h-6.712c-.12-5.646-1.618-11.292-4.741-16.038v16.038h-7.14zm91.186-29.616H125v29.616h-6.442c-.952-4.904-3.266-11.134-7.296-14.246v14.246h-7.147V1.238c3.244.659 7.476 3.995 9.843 6.26 1.513 1.462 2.997 3.066 3.903 4.993V1.252zM.21 30.148l-.21.72v.007h7.131l.233-.87.561-2.286.592-2.085.435-1.312.202-.637h9.131v7.183h7.191V1.132c-.108 0-.219-.002-.33-.004l-.329-.003c-9.566 0-15.798 6.493-19.543 14.777-1.484 3.255-2.832 6.65-3.843 10.077L.21 30.15zM18.3 16.622h-5.903c1.46-2.984 2.772-5.308 5.903-6.763v6.763z" fill="#616161"/></svg>