<svg width="82" height="32" fill="none" xmlns="http://www.w3.org/2000/svg"><path d="M79.658 26.13a2.261 2.261 0 000 4.523 2.263 2.263 0 000-4.523zm0 3.947a1.68 1.68 0 01-1.678-1.686c0-.93.749-1.693 1.678-1.693.925 0 1.672.765 1.672 1.693 0 .93-.747 1.686-1.672 1.686zM82 16.8c0-4.732-2.169-10.259-8.26-10.259-2.138 0-3.89.927-5.06 2.672l-.04.061h-.293V7.088h-5.579V32h5.87v-8.357h.285l.045.054c1.24 1.675 3.007 2.533 5.246 2.533 5.378 0 7.786-4.737 7.786-9.43zm-9.708 4.982c-2.602 0-3.868-1.83-3.868-5.595 0-3.834 2.018-5.195 3.906-5.195 2.798 0 3.8 2.683 3.8 5.195 0 2.707-1.011 5.595-3.838 5.595zM11.364 17.17c0 2.43-.793 3.522-2.562 3.522-1.754 0-2.75-1.02-2.75-2.797v-2.259H0v.985c0 6.553 2.831 9.607 8.909 9.607 5.993 0 8.904-2.824 8.904-8.626V0h-6.447c-.002.278-.002 17.17-.002 17.17zm18.43-10.626c-5.606 0-10 4.302-10 9.788 0 6.107 3.884 9.898 10.14 9.898 4.694 0 8.083-2.232 9.135-5.973h-5.478c-.58 1.274-1.936 2.07-3.583 2.07-2.601 0-4.23-1.654-4.346-4.425v-.146h13.8c.008-.209.015-.416.015-.616 0-3.22-.97-5.996-2.758-7.882-1.693-1.777-4.084-2.714-6.925-2.714zm-4.152 8.04l.022-.168c.39-2.452 1.973-3.97 4.13-3.97 2.046 0 3.677 1.709 3.79 3.986l.007.155h-7.95v-.002z" fill="#616161"/><path d="M80.344 28.446a.616.616 0 00.269-.53.723.723 0 00-.24-.54c-.148-.11-.307-.154-.608-.154H78.75v2.323h.547v-.924h.385l.356.924h.608l-.44-1.024a.776.776 0 00.139-.075zm-.718-.216h-.33v-.6h.317c.326 0 .446.083.446.293 0 .216-.13.307-.433.307zM51.197 6.544c-5.606 0-10 4.302-10 9.788 0 6.107 3.884 9.898 10.139 9.898 4.695 0 8.084-2.232 9.136-5.973h-5.478c-.58 1.274-1.936 2.07-3.583 2.07-2.601 0-4.23-1.654-4.346-4.425v-.146h13.8c.008-.209.015-.416.015-.616 0-3.22-.97-5.996-2.758-7.882-1.69-1.777-4.084-2.714-6.925-2.714zm-4.153 8.04l.023-.168c.39-2.452 1.973-3.97 4.13-3.97 2.045 0 3.676 1.709 3.79 3.986l.007.155h-7.95v-.002z" fill="#616161"/></svg>