<svg width="205" height="32" fill="none" xmlns="http://www.w3.org/2000/svg"><path d="M57.861 31.072v-5.616h1.747c.53 0 .946.149 1.262.435.315.287.473.676.473 1.158 0 .32-.079.619-.237.86a1.376 1.376 0 01-.664.55c-.282.114-.676.171-1.206.171h-.586v2.442h-.789zm1.612-4.906h-.823v1.754h.868c.326 0 .574-.08.743-.23.18-.149.26-.378.26-.664 0-.573-.35-.86-1.048-.86zm3.977-.71h.71v2.418c.304-.378.676-.562 1.127-.562.248 0 .462.058.653.184.192.126.338.298.429.515.09.218.146.54.146.975v2.108h-.71v-2.28c0-.275-.067-.482-.191-.654a.643.643 0 00-.519-.24.924.924 0 00-.45.126c-.147.08-.293.218-.474.412v2.637h-.71v-5.64h-.01zm7.9 3.404v1.581c0 .126.045.195.124.195.09 0 .225-.057.405-.183v.412a1.867 1.867 0 01-.394.207.962.962 0 01-.315.057c-.305 0-.496-.115-.541-.356a1.544 1.544 0 01-.98.356.85.85 0 01-.632-.252.88.88 0 01-.248-.642c0-.23.08-.447.248-.63.158-.184.395-.333.7-.436l.912-.321v-.195c0-.447-.214-.665-.654-.665-.383 0-.766.207-1.138.62v-.803c.282-.332.676-.504 1.206-.504.394 0 .71.103.946.31.08.068.147.16.214.274a1 1 0 01.124.333c.012.114.023.332.023.642zm-.721 1.49v-1.112l-.474.195a1.85 1.85 0 00-.518.297.514.514 0 00-.146.379c0 .149.045.275.146.378a.497.497 0 00.372.149c.225 0 .428-.092.62-.287zm4.203-2.969v.848l.033-.068c.35-.574.699-.849 1.048-.849.27 0 .553.138.857.413l-.383.642c-.248-.24-.485-.367-.699-.367-.237 0-.428.115-.609.332a1.32 1.32 0 00-.259.803v1.937h-.732v-3.69h.744zm6.951 1.009v2.682h-.732v-2.063c0-.413-.056-.7-.158-.86-.112-.16-.293-.24-.563-.24a.822.822 0 00-.406.103c-.124.068-.27.194-.428.366v2.682h-.71v-3.69h.71v.481c.36-.367.721-.561 1.07-.561.462 0 .823.217 1.071.664.383-.447.789-.665 1.206-.665.36 0 .642.138.879.39.225.264.338.665.338 1.204v2.177h-.71v-2.2c0-.31-.068-.55-.192-.71a.65.65 0 00-.54-.253c-.294.011-.564.172-.835.493zm7.087.47v1.581c0 .126.046.195.124.195.09 0 .226-.057.406-.183v.412a2.188 2.188 0 01-.394.207.962.962 0 01-.316.057c-.304 0-.496-.115-.552-.356a1.54 1.54 0 01-.98.356.85.85 0 01-.631-.252.89.89 0 01-.26-.642c0-.23.08-.447.249-.63.157-.184.394-.333.698-.436l.913-.321v-.195c0-.447-.214-.665-.654-.665-.394 0-.766.207-1.138.62v-.803c.282-.332.676-.504 1.206-.504.394 0 .71.103.935.31.079.068.147.16.214.274a.983.983 0 01.124.333c.057.114.057.332.057.642zm-.71 1.49v-1.112l-.473.195a1.85 1.85 0 00-.518.297.514.514 0 00-.147.379c0 .149.046.275.147.378.09.103.214.149.372.149.214 0 .428-.092.62-.287zm6.154-.127v.722a3 3 0 01-1.07.207c-.576 0-1.026-.172-1.376-.516-.338-.344-.507-.802-.507-1.387 0-.584.17-1.054.496-1.41.327-.355.766-.538 1.307-.538.192 0 .36.023.507.057.147.034.338.103.552.206v.791c-.371-.24-.71-.367-1.025-.367-.327 0-.597.115-.811.344-.214.23-.316.527-.316.894 0 .378.113.688.338.906.226.229.53.332.924.332.305.012.62-.069.98-.24zm5.466-.939h-2.581c.022.355.135.642.349.848.214.206.496.31.845.31a2.22 2.22 0 001.319-.436v.71c-.226.15-.44.253-.665.321a2.994 2.994 0 01-.767.092c-.405 0-.732-.08-.98-.252a1.85 1.85 0 01-.597-.688 2.162 2.162 0 01-.225-.997c0-.561.157-1.02.473-1.375.315-.356.721-.527 1.228-.527.484 0 .868.171 1.16.515.294.344.429.803.429 1.376v.103h.011zm-2.581-.436h1.859c-.023-.286-.102-.515-.26-.676-.157-.16-.36-.24-.63-.24-.26 0-.474.08-.643.24-.169.16-.27.39-.326.676zm7.222 2.224v-.459a1.582 1.582 0 01-.529.39 1.42 1.42 0 01-.597.137c-.226 0-.451-.057-.643-.172a1.096 1.096 0 01-.439-.47c-.102-.206-.147-.527-.147-.997v-2.12h.71v2.12c0 .39.057.665.169.814.113.16.305.23.586.23.35 0 .643-.173.89-.517V27.37h.722v3.691h-.722v.012zm2.762-3.095l1.341-1.364v.768h1.149v.665h-1.149v1.811c0 .424.169.63.518.63.259 0 .529-.08.811-.24v.676c-.27.16-.575.23-.89.23-.327 0-.597-.104-.823-.287a.925.925 0 01-.169-.195 1.166 1.166 0 01-.112-.287c-.034-.114-.045-.344-.045-.687v-1.64h-.62v-.08h-.011zm5.104-2.155a.45.45 0 01.304.126c.079.08.124.184.124.31a.468.468 0 01-.124.31.43.43 0 01-.304.125.405.405 0 01-.293-.126.44.44 0 01-.124-.298.42.42 0 01.124-.298.355.355 0 01.293-.149zm-.361 1.559h.71v3.69h-.71v-3.69zm6.04 2.842v.722a3.004 3.004 0 01-1.071.207c-.574 0-1.025-.172-1.374-.516-.338-.344-.507-.802-.507-1.387 0-.584.169-1.054.495-1.41.327-.355.767-.538 1.308-.538.191 0 .36.023.507.057.146.034.338.103.552.206v.791c-.372-.24-.71-.367-1.026-.367-.326 0-.597.115-.8.344-.214.23-.315.527-.315.894 0 .378.113.688.338.906.225.229.529.332.913.332.293.012.619-.069.98-.24zm4.631-1.363v1.581c0 .126.045.195.124.195.09 0 .225-.057.406-.183v.412a2.17 2.17 0 01-.395.207.96.96 0 01-.315.057c-.305 0-.496-.115-.541-.356a1.542 1.542 0 01-.98.356.85.85 0 01-.631-.252.877.877 0 01-.248-.642c0-.23.078-.447.248-.63a1.63 1.63 0 01.698-.436l.913-.321v-.195c0-.447-.214-.665-.654-.665-.383 0-.766.207-1.138.62v-.803c.282-.332.676-.504 1.206-.504.394 0 .71.103.946.31.079.068.147.16.215.274a1 1 0 01.123.333c.023.114.023.332.023.642zm-.71 1.49v-1.112l-.473.195a1.84 1.84 0 00-.518.297.512.512 0 00-.147.379c0 .149.045.275.147.378a.495.495 0 00.371.149c.214 0 .429-.092.62-.287zm4.135-4.894h-.71v5.616h.71v-5.616zm2.423 5.364v-.791c.203.148.417.263.62.343.214.092.394.138.541.138a.61.61 0 00.383-.115c.113-.08.158-.16.158-.263a.365.365 0 00-.102-.264c-.067-.069-.225-.172-.45-.31-.462-.263-.767-.492-.913-.676a.95.95 0 01-.214-.607.88.88 0 01.327-.7c.214-.183.495-.274.845-.274.36 0 .721.103 1.093.31v.721c-.428-.263-.778-.39-1.048-.39a.567.567 0 00-.338.092c-.09.058-.124.138-.124.24 0 .093.045.173.112.242.079.08.215.172.406.286l.259.15c.609.354.913.733.913 1.157a.91.91 0 01-.349.745c-.237.195-.53.286-.902.286-.214 0-.405-.023-.574-.069-.181-.034-.395-.126-.643-.252zm13.116-5.364h.744v5.616h-.676l-3.685-4.321v4.32h-.744v-5.615h.642l3.719 4.366v-4.366zm5.105 1.914c.552 0 1.014.183 1.374.55.372.366.552.825.552 1.375 0 .539-.191.986-.552 1.33-.372.355-.833.527-1.397.527-.541 0-1.003-.184-1.363-.539a1.838 1.838 0 01-.552-1.352c0-.54.18-.997.552-1.364.36-.344.822-.527 1.386-.527zm-.045.664c-.35 0-.631.115-.846.344-.225.23-.326.527-.326.883 0 .355.112.642.338.87.225.23.518.333.867.333.35 0 .643-.114.868-.344.225-.229.338-.515.338-.87 0-.356-.113-.643-.349-.872a1.223 1.223 0 00-.89-.344zm5.081-.653v.848l.045-.068c.349-.574.698-.849 1.048-.849.27 0 .552.138.845.413l-.383.642c-.248-.24-.485-.367-.699-.367-.237 0-.428.115-.608.332-.169.23-.26.493-.26.803v1.937h-.732v-3.69h.744zm3.652.596l1.34-1.364v.768h1.15v.665h-1.15v1.811c0 .424.169.63.519.63.259 0 .529-.08.811-.24v.676c-.27.16-.575.23-.901.23-.327 0-.598-.104-.812-.287a.925.925 0 01-.169-.195 1.127 1.127 0 01-.112-.287c-.034-.114-.045-.344-.045-.687v-1.64h-.62v-.08h-.011zm4.709-2.521h.71v2.418c.305-.378.676-.562 1.127-.562.248 0 .462.058.654.184.191.126.338.298.428.515.09.218.146.54.146.975v2.108h-.709v-2.28a1.07 1.07 0 00-.192-.654.642.642 0 00-.518-.24.892.892 0 00-.451.126 1.82 1.82 0 00-.473.412v2.637h-.71v-5.64h-.012zm10.435-.023h.563l2.479 5.65h-.811l-.733-1.662h-2.355l-.687 1.662h-.811l2.355-5.65zm1.183 3.266l-.902-2.04-.834 2.04h1.736zm6.895-.309v2.682h-.732v-2.063c0-.413-.057-.7-.158-.86-.113-.16-.293-.24-.564-.24a.867.867 0 00-.417.103 1.86 1.86 0 00-.428.366v2.682h-.71v-3.69h.71v.481c.361-.367.721-.561 1.071-.561.462 0 .822.217 1.07.664.383-.447.789-.665 1.206-.665.349 0 .642.138.879.39.225.264.338.665.338 1.204v2.177h-.71v-2.2c0-.31-.056-.55-.192-.71a.65.65 0 00-.54-.253c-.282.011-.564.172-.823.493zm7.912.894h-2.581c.023.355.135.642.349.848.215.206.496.31.846.31.473 0 .924-.15 1.329-.436v.71a2.509 2.509 0 01-.665.321 2.991 2.991 0 01-.766.092c-.406 0-.732-.08-.98-.252a1.845 1.845 0 01-.597-.688 2.156 2.156 0 01-.226-.997c0-.561.158-1.02.474-1.375.315-.356.721-.527 1.228-.527.484 0 .867.171 1.16.515.293.344.429.803.429 1.376v.103zm-2.581-.436h1.859c-.022-.286-.101-.515-.259-.676-.158-.16-.36-.24-.631-.24a.895.895 0 00-.642.24c-.169.16-.282.39-.327.676zm5.656-1.467v.848l.046-.068c.349-.574.698-.849 1.047-.849.271 0 .553.138.857.413l-.383.642c-.248-.24-.485-.367-.699-.367-.237 0-.428.115-.608.332-.169.23-.26.493-.26.803v1.937h-.732v-3.69h.732zm4.349-1.559a.427.427 0 01.428.436.468.468 0 01-.124.31.45.45 0 01-.304.125.425.425 0 01-.293-.126.44.44 0 01-.124-.298.42.42 0 01.124-.298.355.355 0 01.293-.149zm-.361 1.559h.71v3.69h-.71v-3.69zm5.083 3.095c-.383 0-.687-.115-.912-.333-.226-.229-.338-.527-.338-.905 0-.367.101-.665.315-.894.214-.23.473-.344.812-.344.315 0 .653.126 1.025.367v-.791a2.827 2.827 0 00-.552-.206 2.223 2.223 0 00-.507-.058c-.541 0-.981.184-1.307.54-.327.354-.496.824-.496 1.409 0 .573.169 1.043.507 1.387.338.343.8.515 1.375.515.349 0 .698-.068 1.07-.206v-.722c-.394.16-.721.24-.992.24zm5.601-1.616v1.581c0 .126.045.195.124.195.09 0 .225-.057.405-.183v.412a1.861 1.861 0 01-.394.207.967.967 0 01-.316.057c-.304 0-.484-.115-.54-.356a1.545 1.545 0 01-.981.356.85.85 0 01-.631-.252.88.88 0 01-.248-.642c0-.23.079-.447.248-.63.169-.184.395-.333.699-.436l.913-.321v-.195c0-.447-.215-.665-.654-.665-.394 0-.766.207-1.138.62v-.803c.282-.332.676-.504 1.206-.504.394 0 .709.103.946.31.079.068.147.16.214.274a.981.981 0 01.124.333c.011.114.023.332.023.642zm-.721 1.49v-1.112l-.485.195c-.237.103-.417.206-.518.297a.512.512 0 00-.147.379c0 .149.045.275.147.378a.48.48 0 00.372.149c.225 0 .439-.092.631-.287zM28.204 4.848h26.705L39.494 32H12.79L28.204 4.848z" fill="#616161"/><path d="M15.415 27.163H42.12L26.705 0H0l15.415 27.163zm52.396-8.848c1.397-2.82 4.643-10.155 5.172-11.668.124-.32.214-.607.214-.802a.51.51 0 00-.315-.481c-.293-.092-.654-.092-.913-.092-.146 0-.27-.023-.27-.126 0-.126.146-.172.53-.172.968 0 2.073.069 2.366.069.146 0 1.183-.069 1.882-.069.27 0 .405.046.405.15 0 .102-.09.148-.293.148-.169 0-.698 0-1.16.252-.316.195-.677.55-1.33 1.972-.27.584-1.476 3.117-2.705 5.696-1.476 3.072-2.557 5.34-3.12 6.372-.677 1.261-.778 1.593-1.015 1.593-.293 0-.406-.297-.868-1.306L60.498 6.98c-.53-1.18-.89-1.41-1.735-1.616-.372-.092-.777-.092-.924-.092-.146 0-.191-.057-.191-.149 0-.126.247-.149.63-.149 1.161 0 2.536.069 2.829.069.236 0 1.33-.069 2.242-.069.44 0 .654.046.654.15 0 .102-.068.148-.237.148-.27 0-.699.023-.913.103-.27.103-.315.275-.315.424 0 .275.293.929.653 1.742l4.62 10.774zM86.99 5.502c.292-.7.382-.826.529-.826.146 0 .236.103.53.757.36.802 4.157 9.49 5.622 12.688.868 1.868 1.566 2.212 2.073 2.338.361.103.722.126.97.126.146 0 .236.023.236.126 0 .126-.214.172-.484.172-.361 0-2.13 0-3.798-.046-.462-.023-.721-.023-.721-.15 0-.09.068-.125.17-.148.146-.046.292-.23.145-.573l-2.242-5.17c-.045-.08-.101-.125-.214-.125h-5.183c-.124 0-.192.068-.237.171l-1.453 3.725c-.215.528-.339 1.032-.339 1.41 0 .424.508.608.925.608h.236c.17 0 .237.046.237.126 0 .126-.147.172-.36.172-.576 0-1.623-.07-1.883-.07-.259 0-1.6.07-2.727.07-.315 0-.462-.046-.462-.172 0-.08.102-.126.215-.126.169 0 .507-.023.698-.046 1.116-.126 1.6-.929 2.028-1.983L86.99 5.502zm2.512 8.412c.124 0 .124-.057.101-.149l-2.298-5.673c-.124-.31-.237-.31-.361 0l-2.13 5.673c-.045.103 0 .15.068.15h4.62zm17.782.906c0 3.094.101 4.435.529 4.813.384.332 1.015.482 2.896.482 1.285 0 2.344-.023 2.919-.63.315-.345.552-.86.631-1.262.022-.172.067-.275.214-.275.124 0 .146.08.146.31 0 .229-.169 1.49-.36 2.109-.169.481-.237.561-1.521.561-3.482 0-5.071-.126-6.48-.126-.101 0-.507.023-.991.023a33.48 33.48 0 01-1.375.046c-.27 0-.383-.046-.383-.172 0-.069.045-.126.192-.126.214 0 .507-.046.721-.08.484-.08.608-.55.698-1.158.124-.882.124-2.544.124-4.562v-3.701c0-3.278 0-3.874-.045-4.54-.045-.721-.236-1.054-1.036-1.203-.192-.045-.598-.057-.823-.057-.101 0-.192-.046-.192-.126 0-.126.124-.172.384-.172 1.081 0 2.614.069 2.726.069.124 0 1.882-.069 2.615-.069.27 0 .383.046.383.172 0 .08-.102.126-.192.126a8.32 8.32 0 00-.8.057c-.698.104-.89.459-.946 1.204-.045.676-.045 1.26-.045 4.538v3.748h.011zm17.093-3.748c0-3.278 0-3.874-.045-4.54-.045-.721-.237-1.054-1.037-1.203-.191-.045-.608-.057-.822-.057-.102 0-.192-.046-.192-.126 0-.126.124-.172.383-.172 1.082 0 2.603.057 2.727.057.169 0 4.981 0 5.533-.022a9.15 9.15 0 001.037-.104c.124-.023.214-.103.338-.103.078 0 .101.08.101.195 0 .15-.124.401-.192.986-.022.206-.078 1.134-.123 1.387-.023.103-.068.229-.17.229-.146 0-.191-.103-.191-.275 0-.15-.023-.505-.147-.757-.169-.332-.416-.584-1.712-.722-.406-.046-3.043-.057-3.313-.057-.09 0-.147.057-.147.206v5.8c0 .149.023.206.147.206.315 0 3.29 0 3.842-.046.575-.046.913-.08 1.138-.286.169-.172.26-.275.361-.275.068 0 .124.045.124.171 0 .127-.124.482-.192 1.18a25.152 25.152 0 00-.101 1.342c0 .172 0 .401-.169.401-.124 0-.169-.08-.169-.183 0-.207 0-.424-.102-.7-.101-.297-.315-.653-1.262-.733-.653-.069-3.042-.103-3.459-.103-.124 0-.169.057-.169.149v1.845c0 .71-.022 3.152 0 3.599.079 1.456.428 1.73 2.806 1.73.631 0 1.69 0 2.321-.229.631-.229.913-.653 1.082-1.512.045-.23.101-.321.214-.321.146 0 .146.172.146.32 0 .161-.191 1.594-.315 2.04-.169.55-.361.55-1.307.55-3.651 0-5.262-.125-5.961-.125-.124 0-1.645.069-2.366.069-.259 0-.383-.046-.383-.172 0-.07.045-.127.191-.127.214 0 .507-.045.721-.08.485-.08.609-.55.699-1.157.124-.883.124-2.545.124-4.562v-3.713h.011zm23.043-5.57c.293-.7.383-.826.53-.826.146 0 .237.103.529.757.361.802 4.158 9.49 5.623 12.688.868 1.868 1.567 2.212 2.074 2.338.36.103.721.126.969.126.146 0 .236.023.236.126 0 .126-.214.172-.484.172-.361 0-2.13 0-3.786-.046-.462-.023-.721-.023-.721-.15 0-.09.067-.125.169-.148.146-.046.293-.23.146-.573l-2.242-5.17a.218.218 0 00-.214-.125h-5.195c-.124 0-.192.068-.237.171l-1.453 3.725c-.214.528-.338 1.032-.338 1.41 0 .424.507.608.912.608h.237c.169 0 .237.046.237.126 0 .126-.147.172-.361.172-.575 0-1.622-.07-1.882-.07-.27 0-1.588.07-2.727.07-.315 0-.462-.046-.462-.172 0-.08.102-.126.215-.126.169 0 .507-.023.698-.046 1.116-.126 1.6-.929 2.028-1.983l5.499-13.054zm2.524 8.412c.124 0 .124-.057.102-.149l-2.299-5.673c-.124-.31-.237-.31-.361 0l-2.129 5.673c-.045.103 0 .15.067.15h4.62zm16.395 4.103c.045 1.72.293 2.27.947 2.442.462.103.991.126 1.206.126.123 0 .191.046.191.126 0 .126-.146.172-.439.172-1.375 0-2.344-.07-2.558-.07-.214 0-1.228.07-2.321.07-.237 0-.384-.023-.384-.172 0-.08.068-.126.192-.126.192 0 .631-.023.992-.126.608-.15.721-.757.721-2.67l.034-12.058c0-.825.067-1.055.27-1.055.192 0 .608.459.845.677.361.355 3.966 3.747 7.685 7.209 2.389 2.235 5.026 4.79 5.792 5.49l-.271-10.682c-.022-1.364-.191-1.834-.946-1.995a7.865 7.865 0 00-1.183-.103c-.169 0-.192-.057-.192-.149 0-.126.192-.149.485-.149 1.081 0 2.242.07 2.512.07.271 0 1.06-.07 2.051-.07.271 0 .428.023.428.15 0 .08-.101.148-.259.148-.124 0-.293 0-.586.058-.8.149-.89.607-.89 1.868l-.045 12.32c0 1.388-.045 1.49-.214 1.49-.192 0-.485-.229-1.758-1.352-.27-.206-3.741-3.3-6.299-5.696a539.352 539.352 0 01-6.31-6.04l.304 10.097zm32.193-3.243c0 2.017 0 3.679.124 4.561.068.607.214 1.066.947 1.158.338.046.868.08 1.082.08.146 0 .191.057.191.126 0 .103-.124.172-.383.172-1.33 0-2.851-.069-2.975-.069-.124 0-1.645.069-2.366.069-.27 0-.383-.046-.383-.172 0-.069.045-.126.191-.126.215 0 .508-.046.722-.08.484-.08.608-.55.698-1.158.124-.882.124-2.544.124-4.562V5.88l-3.572.046c-1.498.023-2.073.172-2.468.677-.259.355-.338.504-.405.653-.079.172-.147.206-.237.206-.067 0-.124-.069-.124-.183 0-.207.485-2.017.53-2.19.045-.125.146-.4.236-.4.169 0 .406.206 1.06.252.698.068 1.622.103 1.904.103h9.06c1.543 0 2.197-.207 2.388-.207.124 0 .124.127.124.253 0 .63-.079 2.086-.079 2.315 0 .195-.067.275-.169.275-.124 0-.169-.069-.191-.355l-.023-.23c-.101-.63-.653-1.111-2.974-1.157l-3.043-.046v8.883h.011z" fill="#616161"/></svg>