<svg width="52" height="32" fill="none" xmlns="http://www.w3.org/2000/svg"><path fill-rule="evenodd" clip-rule="evenodd" d="M43.816 31.773v-6.867h-2.85v6.867h2.85zm-15.082-2.852v-3.912h-2.761v2.99c0 .869-.035 1.113-.089 1.34-.192.627-.855.904-1.538.904-.944 0-1.382-.365-1.557-.94a3.36 3.36 0 01-.088-.609c-.018-.226 0-.468 0-.73V25.01h-2.797v3.93c0 .886.296 1.548.787 1.998.84.819 2.255 1.06 3.566 1.06 1.592 0 2.814-.227 3.687-1.077.458-.433.79-1.007.79-1.999zm-13.564-.486a2.34 2.34 0 00-.42-.035h-3.146c-.156 0-.33.018-.42.035.054-.053.157-.156.264-.294l1.414-2.331a3.65 3.65 0 00.314-.61c.035.089.121.295.313.627l1.45 2.346c.074.106.178.21.231.262zm5.279 3.338l-6.29-9.39h-3.534l.926 1.095a.387.387 0 00.089.053.39.39 0 00-.089.053l-5.486 8.19h3.181l.855-1.408a.455.455 0 00.054-.173c.035 0 .121.035.21.035h5.68a.46.46 0 00.193-.035c0 .035 0 .088.036.138l.89 1.442h3.285zM40.2 28.244c0-.765-.314-1.651-1.293-2.888l-2.358-2.973h-3.285l1.87 2.087c.314.348.716.66.716.66-.455-.262-1.03-.365-1.485-.365-1.083 0-2.184.226-3.163.765-1.048.574-1.749 1.53-1.749 2.8 0 .974.438 1.721.997 2.295C31.708 31.876 33.998 32 34.838 32c1.24 0 3.181-.28 4.282-1.269.642-.591 1.08-1.41 1.08-2.487zm-2.728.088c0 .713-.47 1.251-1.065 1.549-.489.262-1.066.33-1.575.33-.508 0-1.1-.104-1.592-.348-.594-.294-1.047-.868-1.047-1.495 0-.748.577-1.34 1.258-1.634.42-.191.926-.262 1.328-.262.385 0 .944.053 1.382.227.787.33 1.31.953 1.31 1.633zM42.91 0a9.07 9.07 0 00-5.636 1.949A9.064 9.064 0 0031.636 0 9.07 9.07 0 0026 1.949 9.064 9.064 0 0020.363 0a9.07 9.07 0 00-5.636 1.949A9.07 9.07 0 009.09 0C4.069 0 0 4.047 0 9.043c0 4.995 4.069 9.043 9.09 9.043a9.07 9.07 0 005.636-1.95 9.089 9.089 0 005.637 1.95A9.07 9.07 0 0026 16.136a9.089 9.089 0 005.637 1.95 9.07 9.07 0 005.636-1.95 9.07 9.07 0 005.637 1.95c5.022 0 9.09-4.048 9.09-9.043C52.003 4.047 47.934 0 42.91 0zM13.241 14.662a7.073 7.073 0 01-4.148 1.354c-3.873 0-7.01-3.117-7.01-6.973 0-3.853 3.134-6.974 7.01-6.974 1.544 0 2.988.513 4.148 1.354a8.958 8.958 0 00-1.967 5.62 9.03 9.03 0 001.967 5.62zm1.486-1.475a6.9 6.9 0 01-1.37-4.141c0-1.555.506-2.982 1.37-4.142a6.896 6.896 0 011.372 4.142 6.903 6.903 0 01-1.373 4.141zm9.788 1.475a7.014 7.014 0 01-4.155 1.351 6.99 6.99 0 01-4.145-1.35 9.023 9.023 0 001.968-5.62 8.965 8.965 0 00-1.968-5.62 6.98 6.98 0 014.145-1.35c1.554 0 2.992.5 4.155 1.35a8.959 8.959 0 00-1.968 5.62 9.03 9.03 0 001.968 5.62zM26 13.187a6.9 6.9 0 01-1.37-4.141c0-1.555.506-2.982 1.37-4.142a6.896 6.896 0 011.373 4.142A6.903 6.903 0 0126 13.187zm9.788 1.475a7.014 7.014 0 01-4.154 1.351c-1.554 0-2.983-.5-4.146-1.35a9.023 9.023 0 001.968-5.62 8.964 8.964 0 00-1.968-5.62 6.98 6.98 0 014.146-1.35c1.553 0 2.991.5 4.154 1.35a8.958 8.958 0 00-1.968 5.62 9.03 9.03 0 001.968 5.62zm1.486-1.475A6.903 6.903 0 0135.9 9.046c0-1.555.505-2.982 1.372-4.142a6.894 6.894 0 011.37 4.142 6.881 6.881 0 01-1.37 4.141zm5.636 2.83a7.065 7.065 0 01-4.148-1.355 9.023 9.023 0 001.968-5.62 8.964 8.964 0 00-1.968-5.619A7.08 7.08 0 0142.91 2.07c3.873 0 7.01 3.118 7.01 6.974 0 3.853-3.134 6.973-7.01 6.973z" fill="#616161"/></svg>